<?xml version="1.0" encoding="UTF-8" standalone="no"?>
<!-- Created with Inkscape (http://www.inkscape.org/) -->

<svg
   xmlns:dc="http://purl.org/dc/elements/1.1/"
   xmlns:cc="http://creativecommons.org/ns#"
   xmlns:rdf="http://www.w3.org/1999/02/22-rdf-syntax-ns#"
   xmlns:svg="http://www.w3.org/2000/svg"
   xmlns="http://www.w3.org/2000/svg"
   xmlns:sodipodi="http://sodipodi.sourceforge.net/DTD/sodipodi-0.dtd"
   xmlns:inkscape="http://www.inkscape.org/namespaces/inkscape"
   width="210mm"
   height="297mm"
   viewBox="0 0 210 297"
   version="1.1"
   id="svg8"
   inkscape:version="0.92.4 (5da689c313, 2019-01-14)"
   sodipodi:docname="ALIF.svg">
  <defs
     id="defs2" />
  <sodipodi:namedview
     id="base"
     pagecolor="#ffffff"
     bordercolor="#666666"
     borderopacity="1.0"
     inkscape:pageopacity="0.0"
     inkscape:pageshadow="2"
     inkscape:zoom="0.061871843"
     inkscape:cx="2496.1357"
     inkscape:cy="123.26021"
     inkscape:document-units="mm"
     inkscape:current-layer="layer1"
     showgrid="false"
     inkscape:window-width="1280"
     inkscape:window-height="971"
     inkscape:window-x="-8"
     inkscape:window-y="-8"
     inkscape:window-maximized="1" />
  <metadata
     id="metadata5">
    <rdf:RDF>
      <cc:Work
         rdf:about="">
        <dc:format>image/svg+xml</dc:format>
        <dc:type
           rdf:resource="http://purl.org/dc/dcmitype/StillImage" />
        <dc:title></dc:title>
      </cc:Work>
    </rdf:RDF>
  </metadata>
  <g
     inkscape:label="Layer 1"
     inkscape:groupmode="layer"
     id="layer1">
    <text
       xml:space="preserve"
       style="font-style:normal;font-variant:normal;font-weight:normal;font-stretch:normal;font-size:10.58333302px;line-height:6.61458302px;font-family:tholoth;-inkscape-font-specification:tholoth;font-variant-ligatures:normal;font-variant-caps:normal;font-variant-numeric:normal;font-feature-settings:normal;text-align:start;letter-spacing:0px;word-spacing:0px;writing-mode:lr-tb;text-anchor:start;fill:#000000;fill-opacity:1;stroke:none;stroke-width:0.26458332"
       x="72.571426"
       y="159.41667"
       id="text12"><tspan
         sodipodi:role="line"
         id="tspan10"
         x="0"
         y="0"
         style="stroke-width:0.26458332"><tspan
           style="font-size:50.79999924px"
           id="tspan14" /></tspan></text>
    <g
       aria-label="اَ اِ اُ اّ اً اٍ اٌ اٰ اٖ اب ات











 اث اج اح اخ اد اذ ار از اس اش











 اص اض اط اظ اع اغ اف اق اك ال











 ام ان اه او اي اء با تا ثا جا حا خا














 دا ذا را زا سا شا صا ضا طا ظا
















 عا غا فا قا كا لا ما نا ها وا يا أ"
       transform="scale(0.85761135,1.1660294)"
       style="font-style:normal;font-variant:normal;font-weight:normal;font-stretch:normal;font-size:270.25341797px;line-height:35.18924713px;font-family:tholoth;-inkscape-font-specification:tholoth;font-variant-ligatures:normal;font-variant-caps:normal;font-variant-numeric:normal;font-feature-settings:normal;text-align:start;letter-spacing:0px;word-spacing:0px;writing-mode:lr-tb;text-anchor:start;fill:#000000;fill-opacity:1;stroke:none;stroke-width:1.40756989"
       id="text33">
      <path
         d="m 1166.0138,-229.99545 q 0,10.55677 -3.8268,20.45375 -1.9794,5.27839 -8.5774,16.75888 l -2.3753,-1.3196 q 0.3959,-3.82683 0.6598,-8.8413 0.3959,-5.01447 0.3959,-6.72994 0,-13.72381 -2.2433,-38.26831 -2.1114,-24.67646 -5.1464,-51.46427 -1.8475,-16.23104 -4.0908,-33.12188 2.6392,-5.80623 5.9382,-12.53617 3.4309,-6.72994 6.466,-12.66813 2.1114,15.0434 5.2784,41.17142 3.299,26.12802 5.1464,47.1096 2.3753,26.12802 2.3753,39.45595 z"
         style="stroke-width:1.40756989"
         id="path175" />
      <path
         d="m 1166.5418,-387.42335 q 0,6.07015 -6.8619,12.00834 -11.8764,4.61858 -38.2683,15.30732 0,-5.80623 5.8062,-11.08462 10.9526,-4.61858 39.324,-16.23104 z"
         style="stroke-width:1.40756989"
         id="path177" />
      <path
         d="m 1035.1099,-229.99545 q 0,10.55677 -3.8269,20.45375 -1.9793,5.27839 -8.5773,16.75888 l -2.3753,-1.3196 q 0.3959,-3.82683 0.6598,-8.8413 0.3959,-5.01447 0.3959,-6.72994 0,-13.72381 -2.2433,-38.26831 -2.1114,-24.67646 -5.1465,-51.46427 -1.8474,-16.23104 -4.0907,-33.12188 2.6392,-5.80623 5.9382,-12.53617 3.4309,-6.72994 6.466,-12.66813 2.1113,15.0434 5.2784,41.17142 3.299,26.12802 5.1464,47.1096 2.3753,26.12802 2.3753,39.45595 z"
         style="stroke-width:1.40756989"
         id="path179" />
      <path
         d="m 1044.8749,-186.05288 q 0,6.33407 -6.8619,12.14029 -11.8764,4.61859 -38.26832,15.17536 0,-5.67426 5.80622,-10.95265 10.9527,-4.48663 39.324,-16.363 z"
         style="stroke-width:1.40756989"
         id="path181" />
      <path
         d="m 904.20583,-229.99545 q 0,10.55677 -3.82684,20.45375 -1.97939,5.27839 -8.57737,16.75888 l -2.37528,-1.3196 q 0.39588,-3.82683 0.6598,-8.8413 0.39588,-5.01447 0.39588,-6.72994 0,-13.72381 -2.24332,-38.26831 -2.11135,-24.67646 -5.14642,-51.46427 -1.84744,-16.23104 -4.09075,-33.12188 2.63919,-5.80623 5.93818,-12.53617 3.43095,-6.72994 6.46603,-12.66813 2.11135,15.0434 5.27838,41.17142 3.299,26.12802 5.14643,47.1096 2.37528,26.12802 2.37528,39.45595 z"
         style="stroke-width:1.40756989"
         id="path183" />
      <path
         d="m 904.33781,-379.50577 q 0,2.24332 -0.39588,4.61859 -0.39587,2.37528 -0.79175,4.75055 l -10.95266,-6.59798 q -6.59798,7.25778 -8.97326,9.63305 -9.76501,9.5011 -16.363,9.5011 h -9.63305 q 6.99386,-3.29899 16.363,-10.68873 8.44542,-6.72995 12.80009,-11.87638 -4.09075,-2.50723 -6.20211,-5.27838 -2.63919,-3.43095 -2.63919,-7.5217 0,-8.70934 5.01447,-15.30733 5.14642,-6.72994 11.08461,-6.72994 3.43095,0 6.2021,3.69487 2.77116,3.69487 2.77116,8.97326 0,2.50723 -0.79176,5.27839 -0.6598,2.63919 -3.29899,9.89697 2.11135,1.84744 4.35467,3.56291 1.45155,1.45156 1.45155,4.09075 z m -9.89697,-14.91144 q 0,-3.56291 -2.50724,-6.59798 -2.50723,-3.03508 -4.8825,-3.03508 -1.3196,0 -2.11136,0.92372 -0.6598,0.92372 -0.6598,1.84744 0,2.90311 3.29899,6.07014 l 5.80623,4.48663 q 1.05568,-2.63919 1.05568,-3.69487 z"
         style="stroke-width:1.40756989"
         id="path185" />
      <path
         d="m 773.30189,-229.99545 q 0,10.55677 -3.82683,20.45375 -1.97939,5.27839 -8.57737,16.75888 l -2.37528,-1.3196 q 0.39588,-3.82683 0.6598,-8.8413 0.39588,-5.01447 0.39588,-6.72994 0,-13.72381 -2.24332,-38.26831 -2.11135,-24.67646 -5.14642,-51.46427 -1.84744,-16.23104 -4.09075,-33.12188 2.63919,-5.80623 5.93818,-12.53617 3.43095,-6.72994 6.46603,-12.66813 2.11135,15.0434 5.27838,41.17142 3.299,26.12802 5.14643,47.1096 2.37527,26.12802 2.37527,39.45595 z"
         style="stroke-width:1.40756989"
         id="path187" />
      <path
         d="m 775.94109,-394.28525 q 0,9.89698 -3.43095,16.23104 -3.82683,7.12582 -10.55677,7.12582 -2.37528,0 -4.35467,-0.79175 -1.9794,-0.79176 -4.48663,-2.50724 -2.77116,4.75055 -5.14643,7.12582 -4.22271,4.22271 -8.8413,4.22271 -5.5423,0 -8.31346,-3.69487 -2.77115,-3.82683 -2.77115,-10.42481 0,-3.43095 0.92372,-6.72994 0.92371,-3.299 2.63919,-7.52171 l 2.77115,-1.18763 q 0,1.05567 -0.26392,3.43095 -0.26392,2.37527 -0.26392,3.95879 0,2.90311 1.18764,5.27839 1.18764,2.24331 3.56291,2.24331 5.67427,0 9.10522,-7.38974 1.58352,-3.43095 3.95879,-13.32793 l 2.77115,-0.79176 q 1.05568,6.46603 1.71548,7.91758 1.58352,4.09075 5.27839,4.09075 5.01446,0 7.91758,-6.59798 2.37527,-5.27839 2.37527,-10.95265 l 2.77115,-0.79176 q 0.52784,2.50723 0.92372,5.67426 0.52784,3.03508 0.52784,5.41035 z"
         style="stroke-width:1.40756989"
         id="path189" />
      <path
         d="m 642.39784,-229.99545 q 0,10.55677 -3.82683,20.45375 -1.97939,5.27839 -8.57738,16.75888 l -2.37527,-1.3196 q 0.39588,-3.82683 0.6598,-8.8413 0.39588,-5.01447 0.39588,-6.72994 0,-13.72381 -2.24332,-38.26831 -2.11135,-24.67646 -5.14643,-51.46427 -1.84743,-16.23104 -4.09075,-33.12188 2.6392,-5.80623 5.93819,-12.53617 3.43095,-6.72994 6.46602,-12.66813 2.11136,15.0434 5.27839,41.17142 3.29899,26.12802 5.14643,47.1096 2.37527,26.12802 2.37527,39.45595 z"
         style="stroke-width:1.40756989"
         id="path191" />
      <path
         d="m 642.26589,-404.84202 q 0,6.07014 -6.72995,11.74441 -12.00833,4.8825 -38.40026,15.43928 0,-5.67427 5.80622,-10.95265 10.95265,-4.61859 39.32399,-16.23104 z m 0,19.79395 q 0,6.33406 -1.84744,7.91758 -1.71548,1.45155 -4.75055,4.09075 -12.14029,4.88251 -38.53222,15.43928 0,-5.67427 5.80622,-10.95265 10.95265,-4.61859 39.32399,-16.49496 z"
         style="stroke-width:1.40756989"
         id="path193" />
      <path
         d="m 511.49391,-229.99545 q 0,10.55677 -3.82683,20.45375 -1.97939,5.27839 -8.57738,16.75888 l -2.37527,-1.3196 q 0.39588,-3.82683 0.6598,-8.8413 0.39587,-5.01447 0.39587,-6.72994 0,-13.72381 -2.24331,-38.26831 -2.11135,-24.67646 -5.14643,-51.46427 -1.84743,-16.23104 -4.09075,-33.12188 2.6392,-5.80623 5.93819,-12.53617 3.43095,-6.72994 6.46602,-12.66813 2.11136,15.0434 5.27839,41.17142 3.29899,26.12802 5.14643,47.1096 2.37527,26.12802 2.37527,39.45595 z"
         style="stroke-width:1.40756989"
         id="path195" />
      <path
         d="m 521.25893,-184.3374 q 0,6.2021 -6.86191,12.00833 -11.87637,4.61859 -38.2683,15.30732 0,-5.80623 5.80622,-11.08461 10.95266,-4.48663 39.32399,-16.23104 z m 0,19.53003 q 0,6.2021 -6.86191,12.14029 -11.87637,4.61859 -38.2683,15.43928 0,-5.67427 5.80622,-11.21657 10.95266,-4.61859 39.32399,-16.363 z"
         style="stroke-width:1.40756989"
         id="path197" />
      <path
         d="m 380.58986,-229.99545 q 0,10.55677 -3.82683,20.45375 -1.9794,5.27839 -8.57738,16.75888 l -2.37528,-1.3196 q 0.39588,-3.82683 0.6598,-8.8413 0.39588,-5.01447 0.39588,-6.72994 0,-13.72381 -2.24331,-38.26831 -2.11136,-24.67646 -5.14643,-51.46427 -1.84744,-16.23104 -4.09075,-33.12188 2.63919,-5.80623 5.93819,-12.53617 3.43095,-6.72994 6.46602,-12.66813 2.11135,15.0434 5.27839,41.17142 3.29899,26.12802 5.14642,47.1096 2.37528,26.12802 2.37528,39.45595 z"
         style="stroke-width:1.40756989"
         id="path199" />
      <path
         d="m 388.11159,-403.52243 q 0,4.88251 -1.45156,9.23718 -1.45155,4.22271 -4.35467,8.70934 1.84744,1.31959 3.03508,2.90311 1.18763,1.45156 1.18763,3.16703 0,6.20211 -0.92372,11.61245 l -11.34853,-8.84129 q -6.07014,7.12582 -13.7238,11.08461 -9.36914,4.75055 -20.84963,4.75055 5.27838,-8.70934 5.80622,-9.89698 1.58352,-3.56291 1.58352,-6.72994 0,-3.16703 -1.3196,-5.54231 -1.31959,-2.50723 -3.82683,-2.50723 -2.63919,0 -5.01447,3.16703 -0.92371,1.3196 -3.56291,5.93819 0.92372,-9.23718 2.37528,-13.32793 2.63919,-7.25778 8.70934,-7.25778 4.48662,0 6.99386,4.35467 2.50723,4.35466 2.50723,9.89697 0,2.77115 -0.52784,5.54231 -0.92371,3.82683 -1.31959,5.80622 9.10521,-2.63919 17.41867,-8.84129 -2.24331,-2.11136 -4.35467,-4.35467 -3.43095,-3.82683 -3.43095,-8.04954 0,-6.20211 5.14643,-12.40421 5.67427,-6.86191 12.66813,-6.86191 3.56291,0 6.07014,2.50724 2.50724,2.50723 2.50724,5.93818 z m -9.36914,7.78562 q 0,-3.03507 -1.58351,-5.5423 -1.58352,-2.50724 -4.22271,-2.50724 -2.90312,0 -2.90312,3.69487 0,2.37528 2.37528,5.01447 0.6598,0.79176 4.61859,4.35467 1.71547,-2.50723 1.71547,-5.01447 z"
         style="stroke-width:1.40756989"
         id="path201" />
      <path
         d="m 249.68587,-229.99545 q 0,10.55677 -3.82683,20.45375 -1.9794,5.27839 -8.57738,16.75888 l -2.37528,-1.3196 q 0.39588,-3.82683 0.6598,-8.8413 0.39588,-5.01447 0.39588,-6.72994 0,-13.72381 -2.24331,-38.26831 -2.11136,-24.67646 -5.14643,-51.46427 -1.84744,-16.23104 -4.09075,-33.12188 2.63919,-5.80623 5.93818,-12.53617 3.43096,-6.72994 6.46603,-12.66813 2.11135,15.0434 5.27839,41.17142 3.29899,26.12802 5.14642,47.1096 2.37528,26.12802 2.37528,39.45595 z"
         style="stroke-width:1.40756989"
         id="path203" />
      <path
         d="m 231.47543,-374.35934 q 0,7.12583 -6.20211,17.0228 l -1.18764,-0.52784 q 0.52784,-4.88251 0.52784,-7.12582 0,-16.363 -6.2021,-59.38185 2.50723,-5.01447 6.2021,-11.4805 6.86191,44.07454 6.86191,61.49321 z"
         style="stroke-width:1.40756989"
         id="path205" />
      <path
         d="m 118.78188,-229.99545 q 0,10.55677 -3.82684,20.45375 -1.97939,5.27839 -8.57737,16.75888 l -2.37528,-1.3196 q 0.39588,-3.82683 0.6598,-8.8413 0.39588,-5.01447 0.39588,-6.72994 0,-13.72381 -2.24332,-38.26831 -2.11135,-24.67646 -5.146423,-51.46427 -1.847436,-16.23104 -4.09075,-33.12188 2.639193,-5.80623 5.938185,-12.53617 3.430948,-6.72994 6.466028,-12.66813 2.11135,15.0434 5.27838,41.17142 3.299,26.12802 5.14643,47.1096 2.37528,26.12802 2.37528,39.45595 z"
         style="stroke-width:1.40756989"
         id="path207" />
      <path
         d="m 112.44784,-117.96169 q 0,7.12583 -6.20211,17.0228 l -1.18763,-0.52784 q 0.52783,-4.8825 0.52783,-7.12582 0,-16.363 -6.202101,-59.38185 2.507231,-5.01447 6.202101,-11.4805 6.86191,44.07454 6.86191,61.49321 z"
         style="stroke-width:1.40756989"
         id="path209" />
      <path
         d="m -12.122117,-229.99545 q 0,10.55677 -3.82683,20.45375 -1.979395,5.27839 -8.577379,16.75888 l -2.375274,-1.3196 q 0.395879,-3.82683 0.659798,-8.8413 0.395879,-5.01447 0.395879,-6.72994 0,-13.72381 -2.243314,-38.26831 -2.111355,-24.67646 -5.146428,-51.46427 -1.847435,-16.23104 -4.09075,-33.12188 2.639194,-5.80623 5.938186,-12.53617 3.430951,-6.72994 6.466024,-12.66813 2.111355,15.0434 5.278387,41.17142 3.298992,26.12802 5.146427,47.1096 2.375274,26.12802 2.375274,39.45595 z"
         style="stroke-width:1.40756989"
         id="path211" />
      <path
         d="M -56.592532,-196.34573 H -182.48206 q -25.33626,0 -40.37967,-8.8413 -18.87023,-11.08462 -18.87023,-34.7054 0,-12.27225 5.54231,-25.07234 1.97939,-4.61858 9.50109,-17.55063 l 3.95879,2.50723 q -2.90311,6.07015 -5.67426,12.14029 -3.82683,9.36914 -3.82683,16.75888 0,15.57124 16.363,24.14862 14.64752,7.65366 37.08067,7.65366 h 111.769843 v -3.56291 q 0,-14.77948 -3.562911,-24.01666 -3.562911,-9.36914 -12.14029,-15.96712 l 10.160895,-21.50943 q 5.806225,7.25778 6.993863,9.10522 8.973258,14.77948 8.973258,43.01885 z m -75.744858,32.0662 -10.29285,19.13415 -21.37747,-11.08461 9.76502,-19.26612 z"
         style="stroke-width:1.40756989"
         id="path213" />
      <path
         d="m -335.68724,-229.99545 q 0,10.55677 -3.82683,20.45375 -1.9794,5.27839 -8.57738,16.75888 l -2.37527,-1.3196 q 0.39587,-3.82683 0.65979,-8.8413 0.39588,-5.01447 0.39588,-6.72994 0,-13.72381 -2.24331,-38.26831 -2.11136,-24.67646 -5.14643,-51.46427 -1.84743,-16.23104 -4.09075,-33.12188 2.63919,-5.80623 5.93819,-12.53617 3.43095,-6.72994 6.46602,-12.66813 2.11136,15.0434 5.27839,41.17142 3.29899,26.12802 5.14642,47.1096 2.37528,26.12802 2.37528,39.45595 z"
         style="stroke-width:1.40756989"
         id="path215" />
      <path
         d="M -380.15767,-196.34573 H -506.0472 q -25.33626,0 -40.37966,-8.8413 -18.87023,-11.08462 -18.87023,-34.7054 0,-12.27225 5.5423,-25.07234 1.9794,-4.61858 9.5011,-17.55063 l 3.95879,2.50723 q -2.90311,6.07015 -5.67427,12.14029 -3.82683,9.36914 -3.82683,16.75888 0,15.57124 16.363,24.14862 14.64753,7.65366 37.08067,7.65366 h 111.76985 v -3.56291 q 0,-14.77948 -3.56291,-24.01666 -3.56291,-9.36914 -12.14029,-15.96712 l 10.16089,-21.50943 q 5.80623,7.25778 6.99386,9.10522 8.97326,14.77948 8.97326,43.01885 z m -62.15301,-119.95135 -9.76501,19.13415 -21.64139,-11.08461 10.02894,-19.13415 z m -30.0868,12.27225 -9.89698,18.87023 -21.77334,-11.21657 10.29285,-19.00219 z"
         style="stroke-width:1.40756989"
         id="path217" />
      <path
         d="m 2264.4463,222.16885 q 0,10.55678 -3.8268,20.45375 -1.9794,5.27839 -8.5774,16.75888 l -2.3753,-1.31959 q 0.3959,-3.82684 0.6598,-8.8413 0.3959,-5.01447 0.3959,-6.72995 0,-13.7238 -2.2433,-38.2683 -2.1114,-24.67646 -5.1464,-51.46428 -1.8475,-16.23104 -4.0908,-33.12188 2.6392,-5.80622 5.9382,-12.53617 3.4309,-6.72994 6.466,-12.668124 2.1114,15.043404 5.2784,41.171414 3.299,26.12802 5.1464,47.10961 2.3753,26.12802 2.3753,39.45594 z"
         style="stroke-width:1.40756989"
         id="path219" />
      <path
         d="m 2219.9759,255.81857 h -125.8895 q -25.3363,0 -40.3797,-8.8413 -18.8702,-11.08461 -18.8702,-34.70539 0,-12.27225 5.5423,-25.07234 1.9794,-4.61859 9.5011,-17.55064 l 3.9588,2.50724 q -2.9032,6.07014 -5.6743,12.14029 -3.8268,9.36913 -3.8268,16.75887 0,15.57125 16.363,24.14863 14.6475,7.65366 37.0806,7.65366 h 111.7699 v -3.56291 q 0,-14.77949 -3.5629,-24.01667 -3.5629,-9.36913 -12.1403,-15.96712 l 10.1609,-21.50942 q 5.8062,7.25778 6.9938,9.10521 8.9733,14.77949 8.9733,43.01886 z m -88.0171,-143.30821 -10.1609,19.26611 -21.1136,-11.34853 9.7651,-19.26611 z m 25.996,23.48882 -10.2928,19.0022 -21.3775,-11.34853 9.897,-18.87024 z m -30.3507,11.87637 -10.0289,19.13416 -21.3775,-11.08461 9.765,-19.13416 z"
         style="stroke-width:1.40756989"
         id="path221" />
      <path
         d="m 1940.8811,222.16885 q 0,10.55678 -3.8268,20.45375 -1.9794,5.27839 -8.5774,16.75888 l -2.3753,-1.31959 q 0.3959,-3.82684 0.6598,-8.8413 0.3959,-5.01447 0.3959,-6.72995 0,-13.7238 -2.2433,-38.2683 -2.1114,-24.67646 -5.1464,-51.46428 -1.8475,-16.23104 -4.0908,-33.12188 2.6392,-5.80622 5.9382,-12.53617 3.431,-6.72994 6.466,-12.668124 2.1114,15.043404 5.2784,41.171414 3.299,26.12802 5.1464,47.10961 2.3753,26.12802 2.3753,39.45594 z"
         style="stroke-width:1.40756989"
         id="path223" />
      <path
         d="m 1808.1297,202.63882 q -2.6392,0 -7.6537,-0.39588 -5.0145,-0.39588 -7.5217,-0.39588 -8.4454,0 -19.0022,1.58352 -6.8619,1.05568 -18.7383,3.43095 5.2784,-14.91144 9.897,-19.39807 9.897,-9.76502 33.2538,-9.76502 8.7094,0 35.6291,3.69487 12.5362,1.71548 21.6414,1.71548 3.8269,0 11.2166,-0.92372 7.3898,-0.92372 11.0846,-0.92372 l -4.8825,22.30119 q -27.8435,4.75055 -47.3735,10.82069 -29.0311,8.97326 -45.2622,21.90531 -20.1898,16.09908 -20.1898,38.00439 0,28.37133 29.559,42.62297 25.7321,12.40421 68.7509,12.40421 h 24.2806 l 0.7918,1.45156 -29.8229,20.98159 h -7.6537 q -28.5033,0 -47.3735,-5.27839 -22.5651,-6.33407 -34.1775,-20.32179 -13.196,-15.96712 -13.196,-42.2271 0,-22.16922 10.4248,-39.85182 7.9176,-13.45989 23.0929,-25.46822 4.6186,-3.69487 23.225,-15.96712 z m 38.0043,57.53442 -10.2928,19.13415 -21.3775,-11.08461 9.765,-19.26611 z"
         style="stroke-width:1.40756989"
         id="path225" />
      <path
         d="m 1657.9595,222.16885 q 0,10.55678 -3.8268,20.45375 -1.9794,5.27839 -8.5774,16.75888 l -2.3753,-1.31959 q 0.3959,-3.82684 0.6598,-8.8413 0.3959,-5.01447 0.3959,-6.72995 0,-13.7238 -2.2433,-38.2683 -2.1114,-24.67646 -5.1465,-51.46428 -1.8474,-16.23104 -4.0907,-33.12188 2.6392,-5.80622 5.9382,-12.53617 3.4309,-6.72994 6.466,-12.668124 2.1114,15.043404 5.2784,41.171414 3.299,26.12802 5.1464,47.10961 2.3753,26.12802 2.3753,39.45594 z"
         style="stroke-width:1.40756989"
         id="path227" />
      <path
         d="m 1525.208,202.63882 q -2.6392,0 -7.6536,-0.39588 -5.0145,-0.39588 -7.5217,-0.39588 -8.4455,0 -19.0022,1.58352 -6.8619,1.05568 -18.7383,3.43095 5.2784,-14.91144 9.897,-19.39807 9.8969,-9.76502 33.2538,-9.76502 8.7093,0 35.6291,3.69487 12.5362,1.71548 21.6414,1.71548 3.8268,0 11.2166,-0.92372 7.3897,-0.92372 11.0846,-0.92372 l -4.8825,22.30119 q -27.8435,4.75055 -47.3735,10.82069 -29.0312,8.97326 -45.2622,21.90531 -20.1898,16.09908 -20.1898,38.00439 0,28.37133 29.5589,42.62297 25.7322,12.40421 68.751,12.40421 h 24.2806 l 0.7918,1.45156 -29.8229,20.98159 h -7.6537 q -28.5033,0 -47.3735,-5.27839 -22.5651,-6.33407 -34.1776,-20.32179 -13.1959,-15.96712 -13.1959,-42.2271 0,-22.16922 10.4248,-39.85182 7.9176,-13.45989 23.0929,-25.46822 4.6186,-3.69487 23.2249,-15.96712 z"
         style="stroke-width:1.40756989"
         id="path229" />
      <path
         d="m 1375.038,222.16885 q 0,10.55678 -3.8269,20.45375 -1.9793,5.27839 -8.5773,16.75888 l -2.3753,-1.31959 q 0.3959,-3.82684 0.6598,-8.8413 0.3959,-5.01447 0.3959,-6.72995 0,-13.7238 -2.2433,-38.2683 -2.1114,-24.67646 -5.1465,-51.46428 -1.8474,-16.23104 -4.0907,-33.12188 2.6392,-5.80622 5.9382,-12.53617 3.4309,-6.72994 6.466,-12.668124 2.1113,15.043404 5.2784,41.171414 3.299,26.12802 5.1464,47.10961 2.3753,26.12802 2.3753,39.45594 z"
         style="stroke-width:1.40756989"
         id="path231" />
      <path
         d="m 1242.2865,202.63882 q -2.6392,0 -7.6536,-0.39588 -5.0145,-0.39588 -7.5217,-0.39588 -8.4455,0 -19.0022,1.58352 -6.8619,1.05568 -18.7383,3.43095 5.2784,-14.91144 9.897,-19.39807 9.8969,-9.76502 33.2538,-9.76502 8.7093,0 35.6291,3.69487 12.5362,1.71548 21.6414,1.71548 3.8268,0 11.2166,-0.92372 7.3897,-0.92372 11.0846,-0.92372 l -4.8825,22.30119 q -27.8435,4.75055 -47.3735,10.82069 -29.0312,8.97326 -45.2622,21.90531 -20.1898,16.09908 -20.1898,38.00439 0,28.37133 29.5589,42.62297 25.7322,12.40421 68.751,12.40421 h 24.2806 l 0.7917,1.45156 -29.8228,20.98159 h -7.6537 q -28.5033,0 -47.3735,-5.27839 -22.5651,-6.33407 -34.1776,-20.32179 -13.1959,-15.96712 -13.1959,-42.2271 0,-22.16922 10.4248,-39.85182 7.9175,-13.45989 23.0929,-25.46822 4.6186,-3.69487 23.2249,-15.96712 z m 25.4682,-69.67471 -10.2928,19.13415 -21.3775,-11.08461 9.765,-19.26611 z"
         style="stroke-width:1.40756989"
         id="path233" />
      <path
         d="m 1092.1165,222.16885 q 0,10.55678 -3.8269,20.45375 -1.9794,5.27839 -8.5773,16.75888 l -2.3753,-1.31959 q 0.3959,-3.82684 0.6598,-8.8413 0.3959,-5.01447 0.3959,-6.72995 0,-13.7238 -2.2434,-38.2683 -2.1113,-24.67646 -5.1464,-51.46428 -1.8474,-16.23104 -4.0907,-33.12188 2.6392,-5.80622 5.9382,-12.53617 3.4309,-6.72994 6.466,-12.668124 2.1113,15.043404 5.2784,41.171414 3.299,26.12802 5.1464,47.10961 2.3753,26.12802 2.3753,39.45594 z"
         style="stroke-width:1.40756989"
         id="path235" />
      <path
         d="m 1047.3822,255.81857 h -59.11794 q -7.5217,0 -13.59185,-4.35467 -5.93818,-4.35467 -5.93818,-10.29285 0,-5.01447 0.52784,-9.10522 0.52784,-4.09075 1.97939,-8.97326 h 3.03507 q 1.45156,5.41035 5.27839,7.78562 3.16703,1.9794 8.70934,1.9794 h 51.06844 q 0,-23.62079 -6.598,-38.00439 -8.1815,-17.94652 -27.3157,-23.8847 l 1.9794,-25.60018 q 22.829,11.21657 32.3301,35.76107 7.6537,19.79395 7.6537,51.7282 z"
         style="stroke-width:1.40756989"
         id="path237" />
      <path
         d="m 869.89638,222.16885 q 0,10.55678 -3.82683,20.45375 -1.9794,5.27839 -8.57738,16.75888 l -2.37528,-1.31959 q 0.39588,-3.82684 0.6598,-8.8413 0.39588,-5.01447 0.39588,-6.72995 0,-13.7238 -2.24331,-38.2683 -2.11136,-24.67646 -5.14643,-51.46428 -1.84744,-16.23104 -4.09075,-33.12188 2.63919,-5.80622 5.93818,-12.53617 3.43096,-6.72994 6.46603,-12.668124 2.11135,15.043404 5.27839,41.171414 3.29899,26.12802 5.14642,47.10961 2.37528,26.12802 2.37528,39.45594 z"
         style="stroke-width:1.40756989"
         id="path239" />
      <path
         d="m 825.1621,255.81857 h -59.11793 q -7.5217,0 -13.59185,-4.35467 -5.93818,-4.35467 -5.93818,-10.29285 0,-5.01447 0.52783,-9.10522 0.52784,-4.09075 1.9794,-8.97326 h 3.03507 q 1.45156,5.41035 5.27839,7.78562 3.16703,1.9794 8.70934,1.9794 h 51.06839 q 0,-23.62079 -6.59798,-38.00439 -8.1815,-17.94652 -27.31565,-23.8847 l 1.97939,-25.60018 q 22.82902,11.21657 32.33012,35.76107 7.65366,19.79395 7.65366,51.7282 z m -34.96931,-155.18458 -10.29286,19.13415 -21.37746,-11.08461 9.76501,-19.266112 z"
         style="stroke-width:1.40756989"
         id="path241" />
      <path
         d="m 647.67628,222.16885 q 0,10.55678 -3.82683,20.45375 -1.97939,5.27839 -8.57738,16.75888 l -2.37527,-1.31959 q 0.39588,-3.82684 0.6598,-8.8413 0.39588,-5.01447 0.39588,-6.72995 0,-13.7238 -2.24332,-38.2683 -2.11135,-24.67646 -5.14642,-51.46428 -1.84744,-16.23104 -4.09075,-33.12188 2.63919,-5.80622 5.93818,-12.53617 3.43095,-6.72994 6.46603,-12.668124 2.11135,15.043404 5.27838,41.171414 3.29899,26.12802 5.14643,47.10961 2.37527,26.12802 2.37527,39.45594 z"
         style="stroke-width:1.40756989"
         id="path243" />
      <path
         d="m 603.20583,255.81857 q 0,14.51556 -12.40421,30.08681 -10.82069,13.7238 -26.91977,23.62078 -15.30732,9.5011 -25.2043,9.5011 -9.10522,0 -19.66199,-2.6392 -8.04954,-1.97939 -19.26611,-6.2021 -9.5011,-3.56291 -18.87024,-7.12583 l 2.24332,-5.27838 q 8.70934,1.71547 18.07847,3.43095 9.5011,1.84743 17.15476,1.84743 16.89084,0 35.23323,-10.82069 16.62692,-9.89697 28.37134,-24.94038 11.74441,-15.17536 11.74441,-27.31565 0,-10.42482 -6.07015,-21.90531 -4.88251,-9.23717 -13.72381,-19.00219 l 7.52171,-20.71767 q 10.82069,10.02894 15.96712,20.05787 5.80622,11.34853 5.80622,25.33626 z"
         style="stroke-width:1.40756989"
         id="path245" />
      <path
         d="m 384.81258,222.16885 q 0,10.55678 -3.82683,20.45375 -1.9794,5.27839 -8.57738,16.75888 l -2.37528,-1.31959 q 0.39588,-3.82684 0.6598,-8.8413 0.39588,-5.01447 0.39588,-6.72995 0,-13.7238 -2.24332,-38.2683 -2.11135,-24.67646 -5.14642,-51.46428 -1.84744,-16.23104 -4.09075,-33.12188 2.63919,-5.80622 5.93818,-12.53617 3.43095,-6.72994 6.46603,-12.668124 2.11135,15.043404 5.27838,41.171414 3.299,26.12802 5.14643,47.10961 2.37528,26.12802 2.37528,39.45594 z"
         style="stroke-width:1.40756989"
         id="path247" />
      <path
         d="m 340.34219,255.81857 q 0,14.51556 -12.40421,30.08681 -10.8207,13.7238 -26.91978,23.62078 -15.30732,9.5011 -25.2043,9.5011 -9.10521,0 -19.66199,-2.6392 -8.04954,-1.97939 -19.26611,-6.2021 -9.5011,-3.56291 -18.87023,-7.12583 l 2.24331,-5.27838 q 8.70934,1.71547 18.07848,3.43095 9.50109,1.84743 17.15475,1.84743 16.89084,0 35.23324,-10.82069 16.62692,-9.89697 28.37133,-24.94038 11.74441,-15.17536 11.74441,-27.31565 0,-10.42482 -6.07015,-21.90531 -4.8825,-9.23717 -13.7238,-19.00219 l 7.5217,-20.71767 q 10.82069,10.02894 15.96712,20.05787 5.80623,11.34853 5.80623,25.33626 z m -19.662,-122.85446 -10.29285,19.13415 -21.37747,-11.08461 9.76502,-19.26611 z"
         style="stroke-width:1.40756989"
         id="path249" />
      <path
         d="m 121.94893,222.16885 q 0,10.55678 -3.82683,20.45375 -1.9794,5.27839 -8.57738,16.75888 l -2.37528,-1.31959 q 0.39588,-3.82684 0.6598,-8.8413 0.39588,-5.01447 0.39588,-6.72995 0,-13.7238 -2.24331,-38.2683 -2.11136,-24.67646 -5.14643,-51.46428 -1.847435,-16.23104 -4.09075,-33.12188 2.639194,-5.80622 5.93819,-12.53617 3.43095,-6.72994 6.46602,-12.668124 2.11135,15.043404 5.27839,41.171414 3.29899,26.12802 5.14642,47.10961 2.37528,26.12802 2.37528,39.45594 z"
         style="stroke-width:1.40756989"
         id="path251" />
      <path
         d="M 77.082641,255.81857 H 66.657827 q -7.917581,0 -13.987726,-2.11135 -5.938186,-2.24332 -12.14029,-6.99387 -5.542307,5.01447 -9.896976,6.72995 -6.202105,2.37527 -18.078476,2.37527 h -16.23104 q 0,12.14029 -5.8062258,23.62078 -7.5217012,14.91145 -22.9609842,23.62078 -19.398072,10.95266 -48.561161,10.95266 -26.391938,0 -40.379658,-9.23718 -15.30733,-10.16089 -15.30733,-31.14248 0,-11.34854 2.77116,-22.96099 2.77115,-11.61245 7.5217,-23.35686 2.90311,-7.12582 10.02894,-21.90531 l 5.27838,2.37528 q -9.23718,19.00219 -12.27225,29.95484 -2.90311,10.95266 -2.90311,20.05788 0,16.363 11.61245,24.94037 11.74441,8.44542 33.385799,8.44542 25.336258,0 45.262169,-8.84129 24.808419,-10.95266 24.808419,-30.61465 0,-13.19597 -4.882508,-25.07234 -3.82683,-9.36914 -10.820693,-17.94651 l 10.952653,-27.05174 q 6.5979839,10.8207 8.973258,19.13416 3.298992,11.74441 3.298992,32.0662 h 16.23104 q 12.536169,0 17.814557,-3.82683 4.618588,-3.299 4.618588,-10.1609 0,-3.82683 -0.527838,-7.65366 -0.395879,-3.95879 -1.319597,-8.57738 l 5.278387,-7.91758 2.111355,12.80009 q 2.903113,12.93205 7.785621,18.60631 5.410346,6.33407 15.307322,6.33407 3.035073,0 4.618589,-1.84744 1.715476,-1.97939 1.715476,-4.88251 0,-6.59798 -4.09075,-14.11968 -3.035073,-5.54231 -8.049541,-11.08461 l 8.841299,-14.38361 q 6.202104,10.1609 7.521701,13.85577 2.903113,8.31346 2.903113,24.14862 z"
         style="stroke-width:1.40756989"
         id="path253" />
      <path
         d="m -231.17516,222.16885 q 0,10.55678 -3.82683,20.45375 -1.97939,5.27839 -8.57738,16.75888 l -2.37527,-1.31959 q 0.39588,-3.82684 0.6598,-8.8413 0.39588,-5.01447 0.39588,-6.72995 0,-13.7238 -2.24332,-38.2683 -2.11135,-24.67646 -5.14642,-51.46428 -1.84744,-16.23104 -4.09075,-33.12188 2.63919,-5.80622 5.93818,-12.53617 3.43095,-6.72994 6.46603,-12.668124 2.11135,15.043404 5.27838,41.171414 3.29899,26.12802 5.14643,47.10961 2.37527,26.12802 2.37527,39.45594 z"
         style="stroke-width:1.40756989"
         id="path255" />
      <path
         d="m -276.04144,255.81857 h -10.42482 q -7.91758,0 -13.98772,-2.11135 -5.93819,-2.24332 -12.14029,-6.99387 -5.54231,5.01447 -9.89698,6.72995 -6.2021,2.37527 -18.07848,2.37527 h -16.23104 q 0,12.14029 -5.80622,23.62078 -7.5217,14.91145 -22.96099,23.62078 -19.39807,10.95266 -48.56116,10.95266 -26.39193,0 -40.37966,-9.23718 -15.30732,-10.16089 -15.30732,-31.14248 0,-11.34854 2.77115,-22.96099 2.77116,-11.61245 7.52171,-23.35686 2.90311,-7.12582 10.02893,-21.90531 l 5.27839,2.37528 q -9.23718,19.00219 -12.27225,29.95484 -2.90312,10.95266 -2.90312,20.05788 0,16.363 11.61246,24.94037 11.74441,8.44542 33.38579,8.44542 25.33626,0 45.26217,-8.84129 24.80842,-10.95266 24.80842,-30.61465 0,-13.19597 -4.88251,-25.07234 -3.82683,-9.36914 -10.82069,-17.94651 l 10.95265,-27.05174 q 6.59799,10.8207 8.97326,19.13416 3.29899,11.74441 3.29899,32.0662 h 16.23104 q 12.53617,0 17.81456,-3.82683 4.61859,-3.299 4.61859,-10.1609 0,-3.82683 -0.52784,-7.65366 -0.39588,-3.95879 -1.3196,-8.57738 l 5.27839,-7.91758 2.11136,12.80009 q 2.90311,12.93205 7.78562,18.60631 5.41034,6.33407 15.30732,6.33407 3.03507,0 4.61859,-1.84744 1.71547,-1.97939 1.71547,-4.88251 0,-6.59798 -4.09075,-14.11968 -3.03507,-5.54231 -8.04954,-11.08461 l 8.8413,-14.38361 q 6.20211,10.1609 7.5217,13.85577 2.90312,8.31346 2.90312,24.14862 z m -36.42087,-143.30821 -10.1609,19.26611 -21.11355,-11.34853 9.76502,-19.26611 z m 25.99605,23.48882 -10.29285,19.0022 -21.37747,-11.34853 9.89698,-18.87024 z m -30.35072,11.87637 -10.02894,19.13416 -21.37747,-11.08461 9.76502,-19.13416 z"
         style="stroke-width:1.40756989"
         id="path257" />
      <path
         d="m 2596.9846,674.33316 q 0,10.55677 -3.8268,20.45375 -1.9794,5.27838 -8.5774,16.75888 l -2.3752,-1.3196 q 0.3958,-3.82683 0.6597,-8.8413 0.3959,-5.01447 0.3959,-6.72994 0,-13.72381 -2.2433,-38.26831 -2.1113,-24.67646 -5.1464,-51.46427 -1.8474,-16.23104 -4.0908,-33.12188 2.6392,-5.80623 5.9382,-12.53617 3.431,-6.72994 6.466,-12.66813 2.1114,15.0434 5.2784,41.17142 3.299,26.12802 5.1465,47.1096 2.3752,26.12802 2.3752,39.45595 z"
         style="stroke-width:1.40756989"
         id="path259" />
      <path
         d="m 2552.5143,707.98288 h -156.7681 q -3.9588,27.44761 -19.0022,41.17141 -18.7383,17.0228 -57.1385,17.0228 -26.392,0 -40.3797,-9.23717 -15.3073,-10.1609 -15.3073,-31.14249 0,-11.34853 2.7712,-22.96098 2.7711,-11.61245 7.5217,-23.35686 2.9031,-7.12583 10.0289,-21.90531 l 5.2784,2.37527 q -9.2372,19.0022 -12.2723,29.95485 -2.9031,10.95265 -2.9031,20.05787 0,16.363 11.6125,24.94038 11.7444,8.44542 33.3858,8.44542 25.3362,0 45.2621,-8.8413 24.8085,-10.95265 24.8085,-30.61464 0,-13.19597 -4.8826,-25.07234 -3.8268,-9.36914 -10.8206,-17.94652 l 10.9526,-27.05173 q 6.598,10.82069 8.9733,19.13415 3.299,11.74441 3.299,32.0662 h 2.3752 q 15.7032,0 29.1631,-5.01447 11.6125,-4.35467 24.4126,-13.7238 19.53,-13.59185 23.3568,-16.09908 10.8207,-6.86191 19.3981,-9.76502 9.765,-3.29899 21.5094,-3.29899 18.0785,0 27.0518,10.42481 8.3134,9.63306 8.3134,27.05174 z M 2531.1368,674.861 q 0,-6.46603 -8.1815,-10.02894 -8.0495,-3.69487 -18.8702,-3.69487 -9.5011,0 -21.2455,4.22271 -8.3135,3.03507 -21.1135,9.63306 -9.6331,5.01446 -19.1342,10.02893 h 60.8334 q 12.6681,0 20.1898,-2.50723 7.5217,-2.6392 7.5217,-7.65366 z"
         style="stroke-width:1.40756989"
         id="path261" />
      <path
         d="m 2169.4353,674.33316 q 0,10.55677 -3.8268,20.45375 -1.9794,5.27838 -8.5774,16.75888 l -2.3753,-1.3196 q 0.3959,-3.82683 0.6598,-8.8413 0.3959,-5.01447 0.3959,-6.72994 0,-13.72381 -2.2433,-38.26831 -2.1114,-24.67646 -5.1464,-51.46427 -1.8475,-16.23104 -4.0908,-33.12188 2.6392,-5.80623 5.9382,-12.53617 3.431,-6.72994 6.466,-12.66813 2.1114,15.0434 5.2784,41.17142 3.299,26.12802 5.1464,47.1096 2.3753,26.12802 2.3753,39.45595 z"
         style="stroke-width:1.40756989"
         id="path263" />
      <path
         d="m 2124.965,707.98288 h -156.7681 q -3.9588,27.44761 -19.0022,41.17141 -18.7383,17.0228 -57.1385,17.0228 -26.392,0 -40.3797,-9.23717 -15.3073,-10.1609 -15.3073,-31.14249 0,-11.34853 2.7711,-22.96098 2.7712,-11.61245 7.5217,-23.35686 2.9032,-7.12583 10.029,-21.90531 l 5.2784,2.37527 q -9.2372,19.0022 -12.2723,29.95485 -2.9031,10.95265 -2.9031,20.05787 0,16.363 11.6124,24.94038 11.7445,8.44542 33.3858,8.44542 25.3363,0 45.2622,-8.8413 24.8084,-10.95265 24.8084,-30.61464 0,-13.19597 -4.8825,-25.07234 -3.8268,-9.36914 -10.8207,-17.94652 l 10.9527,-27.05173 q 6.598,10.82069 8.9732,19.13415 3.299,11.74441 3.299,32.0662 h 2.3753 q 15.7032,0 29.1631,-5.01447 11.6125,-4.35467 24.4125,-13.7238 19.5301,-13.59185 23.3569,-16.09908 10.8207,-6.86191 19.3981,-9.76502 9.765,-3.29899 21.5094,-3.29899 18.0785,0 27.0517,10.42481 8.3135,9.63306 8.3135,27.05174 z M 2103.5875,674.861 q 0,-6.46603 -8.1815,-10.02894 -8.0495,-3.69487 -18.8702,-3.69487 -9.5011,0 -21.2455,4.22271 -8.3135,3.03507 -21.1136,9.63306 -9.633,5.01446 -19.1341,10.02893 h 60.8334 q 12.6681,0 20.1898,-2.50723 7.5217,-2.6392 7.5217,-7.65366 z m -66.3757,-76.53662 -10.2928,19.13416 -21.3775,-11.08462 9.765,-19.26611 z"
         style="stroke-width:1.40756989"
         id="path265" />
      <path
         d="m 1741.8858,674.33316 q 0,10.55677 -3.8269,20.45375 -1.9794,5.27838 -8.5774,16.75888 l -2.3752,-1.3196 q 0.3959,-3.82683 0.6598,-8.8413 0.3959,-5.01447 0.3959,-6.72994 0,-13.72381 -2.2434,-38.26831 -2.1113,-24.67646 -5.1464,-51.46427 -1.8474,-16.23104 -4.0907,-33.12188 2.6392,-5.80623 5.9381,-12.53617 3.431,-6.72994 6.4661,-12.66813 2.1113,15.0434 5.2784,41.17142 3.2989,26.12802 5.1464,47.1096 2.3753,26.12802 2.3753,39.45595 z"
         style="stroke-width:1.40756989"
         id="path267" />
      <path
         d="m 1697.1517,707.98288 h -166.4011 v -22.96099 l 20.1898,-0.13196 q 8.9732,0 16.7589,-2.37527 8.9732,-2.77116 20.3218,-9.76502 2.3752,-5.80622 3.8268,-12.40421 1.4515,-6.72994 1.4515,-12.93205 0,-14.11968 -2.6392,-31.14248 -1.9793,-12.40421 -5.9381,-29.16309 -2.1114,-8.70934 -5.5423,-21.24551 l -8.1815,-4.09075 q 0.9237,-7.91758 2.6391,-15.30732 1.8475,-7.38974 5.0145,-14.25164 2.1114,6.2021 9.6331,9.63305 6.2021,2.77116 15.8351,3.69487 -1.3196,13.59185 -1.9794,17.28672 -0.6598,3.69487 -2.5072,9.10522 -0.9237,-0.13196 -4.8825,-1.3196 l -1.7155,-0.52784 q 4.6186,15.43929 7.5217,31.80229 3.0351,16.23104 3.0351,27.31565 0,9.36914 -1.8474,20.84963 -0.6598,4.09075 -2.3753,12.66813 23.0929,-13.32793 29.559,-16.363 19.53,-9.23718 33.5177,-9.23718 17.8146,0 26.6559,10.42481 8.0495,9.5011 8.0495,27.05174 z M 1676.3021,674.861 q 0,-6.72995 -6.9939,-10.1609 -6.8619,-3.56291 -19.7939,-3.56291 -9.6331,0 -22.1693,4.22271 -10.2928,3.43095 -21.9053,9.5011 -8.5773,4.48663 -17.6826,10.16089 h 57.4025 q 31.1425,0 31.1425,-10.16089 z"
         style="stroke-width:1.40756989"
         id="path269" />
      <path
         d="m 1453.6859,674.33316 q 0,10.55677 -3.8268,20.45375 -1.9794,5.27838 -8.5774,16.75888 l -2.3753,-1.3196 q 0.3959,-3.82683 0.6598,-8.8413 0.3959,-5.01447 0.3959,-6.72994 0,-13.72381 -2.2433,-38.26831 -2.1113,-24.67646 -5.1464,-51.46427 -1.8475,-16.23104 -4.0908,-33.12188 2.6392,-5.80623 5.9382,-12.53617 3.431,-6.72994 6.466,-12.66813 2.1114,15.0434 5.2784,41.17142 3.299,26.12802 5.1465,47.1096 2.3752,26.12802 2.3752,39.45595 z"
         style="stroke-width:1.40756989"
         id="path271" />
      <path
         d="m 1408.9516,707.98288 h -166.4011 v -22.96099 l 20.1898,-0.13196 q 8.9733,0 16.7589,-2.37527 8.9732,-2.77116 20.3218,-9.76502 2.3753,-5.80622 3.8268,-12.40421 1.4516,-6.72994 1.4516,-12.93205 0,-14.11968 -2.6392,-31.14248 -1.9794,-12.40421 -5.9382,-29.16309 -2.1114,-8.70934 -5.5423,-21.24551 l -8.1815,-4.09075 q 0.9237,-7.91758 2.6392,-15.30732 1.8474,-7.38974 5.0144,-14.25164 2.1114,6.2021 9.6331,9.63305 6.2021,2.77116 15.8352,3.69487 -1.3196,13.59185 -1.9794,17.28672 -0.6598,3.69487 -2.5073,9.10522 -0.9237,-0.13196 -4.8825,-1.3196 l -1.7155,-0.52784 q 4.6186,15.43929 7.5218,31.80229 3.035,16.23104 3.035,27.31565 0,9.36914 -1.8474,20.84963 -0.6598,4.09075 -2.3753,12.66813 23.093,-13.32793 29.559,-16.363 19.53,-9.23718 33.5177,-9.23718 17.8146,0 26.6559,10.42481 8.0495,9.5011 8.0495,27.05174 z M 1388.102,674.861 q 0,-6.72995 -6.9939,-10.1609 -6.8619,-3.56291 -19.7939,-3.56291 -9.6331,0 -22.1692,4.22271 -10.2929,3.43095 -21.9053,9.5011 -8.5774,4.48663 -17.6826,10.16089 h 57.4024 q 31.1425,0 31.1425,-10.16089 z m -15.0434,-89.73258 -10.2929,19.13415 -21.3774,-11.08461 9.765,-19.26612 z"
         style="stroke-width:1.40756989"
         id="path273" />
      <path
         d="m 1165.486,674.33316 q 0,10.55677 -3.8269,20.45375 -1.9793,5.27838 -8.5773,16.75888 l -2.3753,-1.3196 q 0.3959,-3.82683 0.6598,-8.8413 0.3959,-5.01447 0.3959,-6.72994 0,-13.72381 -2.2433,-38.26831 -2.1114,-24.67646 -5.1465,-51.46427 -1.8474,-16.23104 -4.0907,-33.12188 2.6392,-5.80623 5.9382,-12.53617 3.4309,-6.72994 6.466,-12.66813 2.1113,15.0434 5.2784,41.17142 3.299,26.12802 5.1464,47.1096 2.3753,26.12802 2.3753,39.45595 z"
         style="stroke-width:1.40756989"
         id="path275" />
      <path
         d="m 1112.9662,781.88029 -33.3858,22.03727 q -27.4476,0 -42.491,-2.24331 -25.9961,-3.82683 -40.11578,-15.30733 -17.81455,-14.3836 -17.81455,-41.30338 0,-16.363 5.01446,-29.427 4.09075,-10.68874 11.74442,-20.18983 3.69487,-4.48663 12.93205,-13.59185 -12.66814,-6.33407 -17.55064,-10.95265 -10.8207,-10.1609 -10.8207,-25.73214 0,-13.98773 11.74441,-27.44761 13.45993,-15.43929 32.59403,-15.43929 8.5774,0 18.2105,5.01447 6.466,3.29899 16.231,10.95266 -12.9321,0 -26.5239,1.71547 -17.5506,2.24332 -28.3713,6.46603 -13.196,5.14642 -13.196,12.66812 0,8.04954 15.1754,15.30733 12.8,6.07014 29.0311,8.57738 13.196,-7.12583 25.7321,-12.14029 13.9878,-5.54231 29.0312,-9.23718 l -5.5424,20.58571 q -27.4476,10.68873 -39.5879,16.363 -24.5445,11.61245 -37.6085,23.75274 -16.75884,15.57124 -16.75884,33.3858 0,18.60631 13.98774,29.29505 12.1403,9.23717 35.7611,13.064 18.7382,3.03508 47.7694,3.03508 6.2021,0 12.4042,-0.13196 6.2021,-0.13196 12.4042,-0.26392 z"
         style="stroke-width:1.40756989"
         id="path277" />
      <path
         d="m 887.31508,674.33316 q 0,10.55677 -3.82683,20.45375 -1.9794,5.27838 -8.57738,16.75888 l -2.37528,-1.3196 q 0.39588,-3.82683 0.6598,-8.8413 0.39588,-5.01447 0.39588,-6.72994 0,-13.72381 -2.24331,-38.26831 -2.11136,-24.67646 -5.14643,-51.46427 -1.84744,-16.23104 -4.09075,-33.12188 2.63919,-5.80623 5.93819,-12.53617 3.43095,-6.72994 6.46602,-12.66813 2.11135,15.0434 5.27839,41.17142 3.29899,26.12802 5.14642,47.1096 2.37528,26.12802 2.37528,39.45595 z"
         style="stroke-width:1.40756989"
         id="path279" />
      <path
         d="m 834.79516,781.88029 -33.3858,22.03727 q -27.44761,0 -42.49102,-2.24331 -25.99605,-3.82683 -40.11574,-15.30733 -17.81455,-14.3836 -17.81455,-41.30338 0,-16.363 5.01446,-29.427 4.09075,-10.68874 11.74442,-20.18983 3.69487,-4.48663 12.93204,-13.59185 -12.66813,-6.33407 -17.55063,-10.95265 -10.8207,-10.1609 -10.8207,-25.73214 0,-13.98773 11.74441,-27.44761 13.45989,-15.43929 32.59404,-15.43929 8.57738,0 18.21044,5.01447 6.46602,3.29899 16.23104,10.95266 -12.93205,0 -26.5239,1.71547 -17.55063,2.24332 -28.37133,6.46603 -13.19596,5.14642 -13.19596,12.66812 0,8.04954 15.17536,15.30733 12.80009,6.07014 29.03113,8.57738 13.19597,-7.12583 25.73214,-12.14029 13.98772,-5.54231 29.03112,-9.23718 l -5.5423,20.58571 q -27.44761,10.68873 -39.58791,16.363 -24.5445,11.61245 -37.6085,23.75274 -16.75888,15.57124 -16.75888,33.3858 0,18.60631 13.98772,29.29505 12.14029,9.23717 35.76108,13.064 18.73827,3.03508 47.7694,3.03508 6.2021,0 12.40421,-0.13196 6.2021,-0.13196 12.40421,-0.26392 z m -73.50154,-223.01185 -10.29286,19.13415 -21.37746,-11.08461 9.76501,-19.26611 z"
         style="stroke-width:1.40756989"
         id="path281" />
      <path
         d="m 609.14406,674.33316 q 0,10.55677 -3.82683,20.45375 -1.9794,5.27838 -8.57738,16.75888 l -2.37528,-1.3196 q 0.39588,-3.82683 0.6598,-8.8413 0.39588,-5.01447 0.39588,-6.72994 0,-13.72381 -2.24331,-38.26831 -2.11136,-24.67646 -5.14643,-51.46427 -1.84744,-16.23104 -4.09075,-33.12188 2.63919,-5.80623 5.93818,-12.53617 3.43096,-6.72994 6.46603,-12.66813 2.11135,15.0434 5.27839,41.17142 3.29899,26.12802 5.14642,47.1096 2.37528,26.12802 2.37528,39.45595 z"
         style="stroke-width:1.40756989"
         id="path283" />
      <path
         d="M 564.40974,707.98288 H 443.40272 q -27.8435,0 -44.86629,-3.43096 -20.3218,-4.09075 -30.74661,-13.59184 -11.34853,-10.29286 -11.34853,-27.97545 0,-11.74442 6.72994,-27.44762 4.88251,-10.68873 7.25778,-15.96712 l 5.27839,3.03507 q -5.67427,11.4805 -7.5217,17.55064 -1.84744,5.93819 -1.84744,10.8207 0,17.41867 19.0022,25.73213 19.00219,8.31346 60.43753,8.31346 h 97.25428 q -15.43928,-4.22271 -22.69706,-9.76501 -8.31346,-6.33407 -8.31346,-15.70321 0,-12.27225 8.1815,-26.25997 9.23717,-15.7032 20.45375,-15.7032 13.064,0 18.87023,15.43928 4.88251,12.93205 4.88251,36.81675 z m -13.72381,-39.98379 q 0,-11.48049 -2.50723,-17.68259 -3.03507,-7.38975 -9.23718,-7.38975 -4.48663,0 -6.72994,2.77116 -2.11136,2.63919 -2.11136,7.5217 0,6.46602 5.41035,9.76502 3.95879,2.37527 15.17536,5.01446 z m -12.93205,-94.08725 -10.29285,19.13416 -21.37747,-11.08462 9.76502,-19.26611 z"
         style="stroke-width:1.40756989"
         id="path285" />
      <path
         d="m 264.99318,674.33316 q 0,10.55677 -3.82683,20.45375 -1.9794,5.27838 -8.57738,16.75888 l -2.37527,-1.3196 q 0.39587,-3.82683 0.65979,-8.8413 0.39588,-5.01447 0.39588,-6.72994 0,-13.72381 -2.24331,-38.26831 -2.11136,-24.67646 -5.14643,-51.46427 -1.84743,-16.23104 -4.09075,-33.12188 2.63919,-5.80623 5.93819,-12.53617 3.43095,-6.72994 6.46602,-12.66813 2.11136,15.0434 5.27839,41.17142 3.29899,26.12802 5.14642,47.1096 2.37528,26.12802 2.37528,39.45595 z"
         style="stroke-width:1.40756989"
         id="path287" />
      <path
         d="m 220.25882,714.71282 q 0,26.12801 -25.07233,39.85182 -22.56511,12.27225 -59.9097,12.27225 -29.42701,0 -45.526087,-10.55677 -17.418677,-11.48049 -17.418677,-34.0456 0,-15.57124 5.014468,-32.726 4.618588,-15.83516 13.195967,-31.67032 l 5.542307,2.37527 q -3.826831,9.23718 -6.466024,16.363 -3.562912,9.76502 -5.146428,16.75888 -1.979395,8.8413 -1.979395,17.15476 0,17.15476 14.515565,25.33626 13.459884,7.5217 39.719864,7.5217 28.10741,0 49.22096,-9.23718 24.41254,-10.68873 24.41254,-28.89917 0,-6.72994 -0.52784,-9.63305 -0.39588,-3.03508 -1.58352,-6.07015 -5.01446,2.37527 -10.16089,3.82683 -5.01447,1.3196 -10.1609,1.3196 -11.61245,0 -18.87023,-5.27839 -8.8413,-6.33406 -8.8413,-19.13415 0,-14.91145 7.65366,-28.50329 8.57738,-15.30732 20.32179,-15.30732 15.43928,0 24.41254,21.11354 7.65366,17.94652 7.65366,41.5673 z m -20.98158,-48.95704 q -3.43096,-8.1815 -4.88251,-10.1609 -3.69487,-5.41034 -9.23718,-5.41034 -6.33406,0 -9.36914,3.03507 -2.90311,3.03507 -2.90311,7.65366 0,4.09075 3.82683,6.46602 3.82683,2.37528 8.70934,2.37528 3.43095,0 6.33406,-0.92372 3.03508,-1.05568 7.52171,-3.03507 z m 5.41034,-92.63569 -9.76501,19.13415 -21.64139,-11.08461 10.02893,-19.13416 z m -30.0868,12.27225 -9.89698,18.87023 -21.77335,-11.21657 10.29286,-19.0022 z"
         style="stroke-width:1.40756989"
         id="path289" />
      <path
         d="m -23.206742,674.33316 q 0,10.55677 -3.82683,20.45375 -1.979396,5.27838 -8.577379,16.75888 l -2.375275,-1.3196 q 0.395879,-3.82683 0.659799,-8.8413 0.395879,-5.01447 0.395879,-6.72994 0,-13.72381 -2.243315,-38.26831 -2.111355,-24.67646 -5.146427,-51.46427 -1.847436,-16.23104 -4.09075,-33.12188 2.639193,-5.80623 5.938185,-12.53617 3.430952,-6.72994 6.466025,-12.66813 2.111354,15.0434 5.278387,41.17142 3.298992,26.12802 5.146427,47.1096 2.375274,26.12802 2.375274,39.45595 z"
         style="stroke-width:1.40756989"
         id="path291" />
      <path
         d="m -116.23827,627.35551 q 0,14.38361 -9.63306,22.30119 -9.63305,7.91758 -27.05173,7.91758 -8.04954,0 -17.81456,-2.24332 -5.93818,-1.31959 -17.41868,-4.8825 l 2.24332,-2.77116 q 3.16703,0 7.65366,0.39588 10.42481,0.92372 12.93205,0.92372 15.17536,0 25.99605,-4.35467 10.95266,-4.48663 10.95266,-10.55677 0,-2.77116 -2.24332,-4.75055 -2.24331,-1.9794 -5.27838,-1.9794 -3.43096,0 -5.27839,0.13196 l -9.23718,0.6598 q -3.29899,0 -5.67426,-1.71547 -2.24332,-1.71548 -2.24332,-5.80623 0,-11.08461 11.48049,-26.5239 11.61245,-15.43928 24.28058,-19.66199 l -2.50723,17.28672 q -9.10522,2.50723 -13.98773,5.41035 -7.91758,4.61859 -7.91758,11.08461 0,2.24331 2.11136,3.29899 2.11135,0.92372 4.88251,0.92372 2.37527,0 4.22271,-0.26392 l 7.12582,-0.92372 q 6.8619,0 9.63305,3.56291 2.77116,3.56291 2.77116,12.53617 z m 48.29724,80.62737 h -97.38624 q -31.53836,0 -44.86629,-7.52171 -14.25165,-8.04954 -14.25165,-27.44761 0,-11.61245 6.20211,-26.39193 1.71547,-4.09075 7.25778,-15.17537 l 4.48663,2.6392 q -4.48663,10.29285 -5.93819,15.83516 -1.31959,5.5423 -1.31959,10.55677 0,14.38361 15.17536,20.18983 11.34853,4.35467 33.25384,4.35467 h 84.058312 l -16.494959,-111.9018 -6.861903,-3.299 q 0,-9.10521 1.58352,-17.02279 1.58351,-8.04954 4.750544,-15.57125 l 1.979395,1.45156 q 0,7.65366 9.501097,11.48049 l 14.251645,5.27839 q 0,6.07014 -1.583516,13.59185 -1.451557,7.5217 -3.035073,11.74441 l -6.334064,-2.11136 15.571242,103.45639 z"
         style="stroke-width:1.40756989"
         id="path293" />
      <path
         d="m -316.68504,674.33316 q 0,10.55677 -3.82683,20.45375 -1.9794,5.27838 -8.57738,16.75888 l -2.37528,-1.3196 q 0.39588,-3.82683 0.6598,-8.8413 0.39588,-5.01447 0.39588,-6.72994 0,-13.72381 -2.24331,-38.26831 -2.11136,-24.67646 -5.14643,-51.46427 -1.84744,-16.23104 -4.09075,-33.12188 2.63919,-5.80623 5.93818,-12.53617 3.43095,-6.72994 6.46603,-12.66813 2.11135,15.0434 5.27838,41.17142 3.299,26.12802 5.14643,47.1096 2.37528,26.12802 2.37528,39.45595 z"
         style="stroke-width:1.40756989"
         id="path295" />
      <path
         d="m -361.15546,691.61988 q 0,21.11354 -9.89697,33.51775 -8.8413,10.95266 -25.99606,15.7032 -14.51556,3.9588 -36.81675,3.9588 -25.46822,0 -39.45594,-9.36914 -15.30733,-10.29286 -15.30733,-30.74661 0,-11.34853 3.299,-23.62078 2.77115,-10.42481 8.44542,-22.82902 4.09075,-8.97326 11.08461,-21.64139 l 4.22271,2.50723 q -4.88251,8.8413 -8.1815,15.83517 -4.35467,9.36913 -6.46603,16.75887 -2.50723,8.97326 -2.50723,17.41868 0,16.23104 11.74441,24.5445 11.87637,8.31346 32.85796,8.31346 22.30119,0 41.30338,-7.65366 20.84963,-8.44542 20.84963,-20.18983 0,-12.80009 -4.09075,-43.41473 -3.16703,-23.48883 -7.78562,-52.51996 l -4.35467,-25.60017 -6.07015,-3.16704 q 0,-17.68259 7.25779,-32.19816 h 2.24331 q 0.52784,5.01447 1.84744,7.52171 1.31959,2.37527 4.35466,3.56291 4.09075,1.71547 8.97326,4.09075 3.56291,1.71547 6.20211,3.03507 0,9.23718 -0.6598,13.45989 -0.6598,4.22271 -2.63919,11.87637 l -7.52171,-2.37528 q 0.26392,2.90312 3.82683,26.5239 4.09075,27.57957 6.07015,44.73433 3.16703,27.44761 3.16703,41.96318 z"
         style="stroke-width:1.40756989"
         id="path297" />
      <path
         d="m 2362.0965,1126.4975 q 0,10.5567 -3.8269,20.4537 -1.9794,5.2784 -8.5774,16.7589 l -2.3752,-1.3196 q 0.3958,-3.8268 0.6598,-8.8413 0.3958,-5.0145 0.3958,-6.7299 0,-13.7239 -2.2433,-38.2684 -2.1113,-24.6764 -5.1464,-51.4642 -1.8474,-16.2311 -4.0907,-33.1219 2.6391,-5.8062 5.9381,-12.5362 3.431,-6.7299 6.4661,-12.6681 2.1113,15.0434 5.2783,41.1714 3.299,26.128 5.1465,47.1096 2.3753,26.128 2.3753,39.456 z"
         style="stroke-width:1.40756989"
         id="path299" />
      <path
         d="m 2317.494,1160.1472 h -15.7032 q -21.9053,0 -38.2683,4.0907 -20.7177,5.1465 -20.7177,14.7795 0,8.7094 2.9031,18.6063 3.0351,9.897 6.0702,20.0579 3.167,10.1609 3.167,18.6063 0,5.0145 -0.7917,9.1052 -0.6598,4.0908 -2.5073,10.6888 -3.4309,-10.9527 -6.7299,-21.9053 -6.3341,-20.8497 -9.3691,-31.5384 -4.7506,-16.8908 -4.7506,-20.3218 0,-16.8908 6.9939,-25.8641 7.1258,-9.1052 21.7733,-13.4599 11.6125,-3.4309 34.9693,-5.8062 -8.3134,-8.4454 -10.2928,-10.0289 -6.73,-5.2784 -13.5919,-5.2784 -4.3546,0 -8.3134,2.6392 -3.1671,2.1113 -7.6537,7.2577 l -6.0701,-3.8268 q 3.9588,-9.897 8.9732,-15.8351 8.3135,-9.7651 19.662,-9.7651 8.1815,0 16.363,6.0702 6.73,5.0145 13.7238,13.9877 3.431,4.3547 10.1609,14.7795 z"
         style="stroke-width:1.40756989"
         id="path301" />
      <path
         d="m 2139.8762,1126.4975 q 0,10.5567 -3.8268,20.4537 -1.9794,5.2784 -8.5774,16.7589 l -2.3752,-1.3196 q 0.3958,-3.8268 0.6598,-8.8413 0.3958,-5.0145 0.3958,-6.7299 0,-13.7239 -2.2433,-38.2684 -2.1113,-24.6764 -5.1464,-51.4642 -1.8474,-16.2311 -4.0908,-33.1219 2.6392,-5.8062 5.9382,-12.5362 3.431,-6.7299 6.466,-12.6681 2.1114,15.0434 5.2784,41.1714 3.299,26.128 5.1465,47.1096 2.3752,26.128 2.3752,39.456 z"
         style="stroke-width:1.40756989"
         id="path303" />
      <path
         d="m 2095.4059,1160.1472 q 0,29.427 -17.2867,43.2828 -18.6063,14.9114 -60.0417,14.9114 -26.3919,0 -40.3796,-9.2372 -15.3073,-10.1609 -15.3073,-31.1425 0,-11.3485 2.7711,-22.9609 2.7712,-11.6125 7.5217,-23.3569 2.9031,-7.1258 10.0289,-21.9053 l 5.2784,2.3753 q -9.2371,19.0022 -12.2722,29.9548 -2.9031,10.9527 -2.9031,20.0579 0,16.363 11.6124,24.9404 11.7444,8.4454 33.3858,8.4454 24.9404,0 44.2065,-8.8413 23.8847,-10.9527 23.8847,-30.6147 0,-13.4599 -3.9588,-25.0723 -3.4309,-10.2929 -9.765,-17.9465 l 10.9527,-27.0518 q 6.9938,10.6888 9.633,21.7734 2.6392,11.0846 2.6392,29.427 z m -48.5611,-101.0811 -10.2929,19.1341 -21.3775,-11.0846 9.765,-19.2661 z"
         style="stroke-width:1.40756989"
         id="path305" />
      <path
         d="m 1866.9837,1126.4975 q 0,10.5567 -3.8269,20.4537 -1.9794,5.2784 -8.5774,16.7589 l -2.3752,-1.3196 q 0.3959,-3.8268 0.6598,-8.8413 0.3959,-5.0145 0.3959,-6.7299 0,-13.7239 -2.2434,-38.2684 -2.1113,-24.6764 -5.1464,-51.4642 -1.8474,-16.2311 -4.0907,-33.1219 2.6392,-5.8062 5.9381,-12.5362 3.431,-6.7299 6.4661,-12.6681 2.1113,15.0434 5.2784,41.1714 3.2989,26.128 5.1464,47.1096 2.3753,26.128 2.3753,39.456 z"
         style="stroke-width:1.40756989"
         id="path307" />
      <path
         d="m 1816.5751,1121.2191 q 0,18.6063 -6.0702,27.9754 -9.3691,14.5156 -34.3095,14.5156 -9.6331,0 -15.9671,-3.8268 -7.2578,-4.3547 -7.2578,-12.4042 0,-9.2372 4.6186,-21.3775 4.2227,-10.2929 8.5774,-20.7177 l -1.9794,-0.5278 8.0495,-22.3012 q 23.8847,12.5362 28.5033,15.8352 15.8352,11.0846 15.8352,22.829 z m -11.4805,10.2928 q 0,-5.0144 -14.5156,-13.3279 -6.2021,-3.5629 -13.3279,-6.9939 -5.9382,6.4661 -7.1259,8.0496 -3.6948,5.1464 -3.6948,9.765 0,6.7299 3.6948,10.5568 3.8269,3.6948 10.1609,3.6948 7.3898,0 16.0991,-4.0907 8.7094,-4.2227 8.7094,-7.6537 z"
         style="stroke-width:1.40756989"
         id="path309" />
      <path
         d="m 1659.543,1126.4975 q 0,10.5567 -3.8268,20.4537 -1.9794,5.2784 -8.5774,16.7589 l -2.3753,-1.3196 q 0.3959,-3.8268 0.6598,-8.8413 0.3959,-5.0145 0.3959,-6.7299 0,-13.7239 -2.2433,-38.2684 -2.1114,-24.6764 -5.1465,-51.4642 -1.8474,-16.2311 -4.0907,-33.1219 2.6392,-5.8062 5.9382,-12.5362 3.4309,-6.7299 6.466,-12.6681 2.1113,15.0434 5.2784,41.1714 3.299,26.128 5.1464,47.1096 2.3753,26.128 2.3753,39.456 z"
         style="stroke-width:1.40756989"
         id="path311" />
      <path
         d="m 1615.0726,1152.2296 q 0,21.7733 -16.0991,43.2828 -17.9465,24.0166 -41.4353,24.0166 -8.7094,0 -17.9466,-1.9794 -6.7299,-1.4515 -17.5506,-5.0144 -8.5774,-3.0351 -17.1547,-5.9382 l 2.2433,-4.6186 q 7.3897,1.7155 15.4392,3.5629 8.1815,1.9794 14.6476,1.9794 16.0991,0 30.4827,-8.1815 11.2165,-6.466 22.4331,-18.7383 5.6743,-6.2021 16.0991,-20.1898 -17.8146,0 -26.6559,-5.6743 -10.0289,-6.466 -10.0289,-21.2455 0,-13.5918 6.3341,-25.2043 7.3897,-13.4599 18.7382,-13.4599 11.4805,0 16.495,13.328 3.9588,10.4248 3.9588,29.0311 z m -8.3135,-14.3836 q -2.9031,-12.6681 -6.9938,-17.5506 -3.563,-4.2228 -8.7094,-4.2228 -3.6948,0 -6.466,2.5073 -2.6392,2.3753 -2.6392,6.0701 0,6.4661 5.8062,9.897 5.8063,3.299 19.0022,3.299 z"
         style="stroke-width:1.40756989"
         id="path313" />
      <path
         d="m 1411.9867,1126.4975 q 0,10.5567 -3.8268,20.4537 -1.9794,5.2784 -8.5774,16.7589 l -2.3753,-1.3196 q 0.3959,-3.8268 0.6598,-8.8413 0.3959,-5.0145 0.3959,-6.7299 0,-13.7239 -2.2433,-38.2684 -2.1114,-24.6764 -5.1464,-51.4642 -1.8475,-16.2311 -4.0908,-33.1219 2.6392,-5.8062 5.9382,-12.5362 3.4309,-6.7299 6.466,-12.6681 2.1114,15.0434 5.2784,41.1714 3.299,26.128 5.1464,47.1096 2.3753,26.128 2.3753,39.456 z"
         style="stroke-width:1.40756989"
         id="path315" />
      <path
         d="m 1358.543,1093.2436 q 0,4.2227 -0.7917,8.7094 -0.7918,4.3546 -1.0557,6.2021 -4.6186,-5.9382 -11.0846,-9.3692 -6.3341,-3.4309 -12.9321,-3.4309 -11.4805,0 -24.1486,13.3279 -11.6124,12.2723 -11.6124,19.53 0,2.5073 2.7711,3.8269 2.9031,1.1876 9.897,1.1876 h 10.5568 q 9.5011,0 13.9877,0.2639 4.6186,0.132 10.9526,1.1877 6.3341,1.0556 6.3341,9.633 0,33.1219 -28.8992,50.4086 -26.5239,15.8352 -71.786,15.8352 -23.4889,0 -35.8931,-9.1052 -13.4598,-9.897 -13.4598,-29.8229 0,-13.7238 4.4866,-28.7672 3.4309,-11.4805 9.5011,-24.0167 0.3959,-0.7918 8.3134,-15.7032 l 5.5423,2.2433 q -8.3134,14.7795 -12.8,27.7115 -4.3547,12.8001 -4.3547,22.6971 0,16.0991 11.0846,24.1486 11.2166,8.0496 31.9342,8.0496 15.8352,0 36.8168,-6.3341 17.9465,-5.4103 32.3301,-12.932 14.3836,-7.5217 14.3836,-11.0847 0,-2.5072 -1.7155,-3.2989 -1.5835,-0.7918 -5.2783,-0.7918 h -30.8786 q -5.6743,0 -10.0289,-4.0908 -4.3547,-4.0907 -4.3547,-10.5567 0,-8.8413 7.2578,-24.0167 7.9175,-16.4949 19.1341,-27.5796 13.4599,-13.3279 27.0518,-13.3279 8.7093,0 13.7238,5.2784 5.0144,5.2784 5.0144,13.9877 z m -50.1447,130.5081 -9.765,19.1342 -21.6414,-11.0846 10.029,-19.1342 z m -30.0868,12.2723 -9.8969,18.8702 -21.7734,-11.2165 10.2929,-19.0022 z"
         style="stroke-width:1.40756989"
         id="path317" />
      <path
         d="m 1108.4794,1126.4975 q 0,10.5567 -3.8268,20.4537 -1.9794,5.2784 -8.5774,16.7589 l -2.3753,-1.3196 q 0.3959,-3.8268 0.6598,-8.8413 0.3959,-5.0145 0.3959,-6.7299 0,-13.7239 -2.2433,-38.2684 -2.1114,-24.6764 -5.1465,-51.4642 -1.8474,-16.2311 -4.0907,-33.1219 2.6392,-5.8062 5.9382,-12.5362 3.4309,-6.7299 6.466,-12.6681 2.1114,15.0434 5.2784,41.1714 3.299,26.128 5.1464,47.1096 2.3753,26.128 2.3753,39.456 z"
         style="stroke-width:1.40756989"
         id="path319" />
      <path
         d="m 1050.6811,1127.949 -6.3341,21.6414 q -20.0578,5.0145 -32.9899,11.2166 -14.91141,7.1258 -27.18366,18.6063 l -4.09075,-2.2433 q 1.71547,-6.0702 4.61858,-11.2166 2.50724,-4.4866 5.80623,-8.0495 l -15.30732,-8.7094 q -6.72995,-4.4866 -6.72995,-9.765 0,-4.2227 5.27839,-15.3073 6.33407,-13.196 14.51557,-22.0373 10.55677,-11.3485 21.24551,-11.3485 9.897,0 16.363,5.6743 1.4515,1.1876 6.7299,7.2577 l -6.8619,17.2868 q -4.8825,-3.299 -5.8062,-3.9588 -8.0495,-5.1465 -13.196,-5.1465 -6.334,0 -13.19593,3.5629 -6.8619,3.563 -6.8619,8.0496 0,5.4103 7.91758,10.4248 6.20215,3.8268 18.73825,8.3135 18.3424,-8.8413 37.3446,-14.2517 z"
         style="stroke-width:1.40756989"
         id="path321" />
      <path
         d="m 877.54997,1160.1472 h -75.21702 v -22.961 h 65.58396 q 0,-15.5712 -3.69487,-23.7527 -2.50723,-5.6743 -12.40421,-16.363 l 10.29286,-21.5095 q 9.50109,12.0084 11.87637,18.7383 3.56291,10.1609 3.56291,33.6497 z m -13.45989,32.0662 -10.29285,19.1341 -21.37747,-11.0846 9.76501,-19.2661 z"
         style="stroke-width:1.40756989"
         id="path323" />
      <path
         d="m 811.30627,1160.1472 h -18.47436 q -8.97326,0 -14.3836,-7.2578 -4.75055,-6.3341 -7.25779,-18.8702 -2.37527,-12.5362 -3.69487,-30.8786 -0.79176,-14.9114 -1.71547,-30.6146 -0.79176,-15.7032 -2.24332,-23.7528 -1.31959,-8.1815 -3.69487,-13.3279 -2.90311,-6.3341 -8.04954,-11.0846 l 16.23104,-25.6002 q 5.14643,15.8352 7.25778,37.8724 1.3196,13.7238 2.6392,64.9242 2.37527,23.4888 6.8619,30.0868 3.69487,5.5423 8.04954,5.5423 h 18.47436 z"
         style="stroke-width:1.40756989"
         id="path325" />
      <path
         d="m 674.33207,1160.1472 h -75.21701 v -22.961 h 65.58396 q 0,-15.5712 -3.69488,-23.7527 -2.50723,-5.6743 -12.4042,-16.363 l 10.29285,-21.5095 q 9.5011,12.0084 11.87637,18.7383 3.56291,10.1609 3.56291,33.6497 z m -0.79176,-130.3762 -9.76501,19.1342 -21.64139,-11.0846 10.02894,-19.1342 z m -30.0868,12.2723 -9.89698,18.8702 -21.77334,-11.2166 10.29285,-19.0022 z"
         style="stroke-width:1.40756989"
         id="path327" />
      <path
         d="m 608.08837,1160.1472 h -18.47435 q -8.97326,0 -14.38361,-7.2578 -4.75055,-6.3341 -7.25778,-18.8702 -2.37528,-12.5362 -3.69487,-30.8786 -0.79176,-14.9114 -1.71548,-30.6146 -0.79176,-15.7032 -2.24331,-23.7528 -1.3196,-8.1815 -3.69487,-13.3279 -2.90312,-6.3341 -8.04954,-11.0846 l 16.23104,-25.6002 q 5.14642,15.8352 7.25778,37.8724 1.31959,13.7238 2.63919,64.9242 2.37528,23.4888 6.8619,30.0868 3.69488,5.5423 8.04955,5.5423 h 18.47435 z"
         style="stroke-width:1.40756989"
         id="path329" />
      <path
         d="m 471.11418,1160.1472 h -75.21702 v -22.961 h 65.58396 q 0,-15.5712 -3.69487,-23.7527 -2.50723,-5.6743 -12.40421,-16.363 l 10.29285,-21.5095 q 9.5011,12.0084 11.87638,18.7383 3.56291,10.1609 3.56291,33.6497 z m -26.65586,-153.865 -10.16089,19.2661 -21.11355,-11.3485 9.76501,-19.26614 z m 25.99606,23.4888 -10.29286,19.0022 -21.37746,-11.3485 9.89697,-18.8703 z m -30.35073,11.8764 -10.02893,19.1341 -21.37747,-11.0846 9.76502,-19.1341 z"
         style="stroke-width:1.40756989"
         id="path331" />
      <path
         d="m 404.87047,1160.1472 h -18.47435 q -8.97326,0 -14.38361,-7.2578 -4.75054,-6.3341 -7.25778,-18.8702 -2.37527,-12.5362 -3.69487,-30.8786 -0.79176,-14.9114 -1.71547,-30.6146 -0.79176,-15.7032 -2.24332,-23.7528 -1.3196,-8.1815 -3.69487,-13.3279 -2.90311,-6.3341 -8.04954,-11.0846 l 16.23104,-25.6002 q 5.14643,15.8352 7.25778,37.8724 1.3196,13.7238 2.6392,64.9242 2.37527,23.4888 6.8619,30.0868 3.69487,5.5423 8.04954,5.5423 h 18.47435 z"
         style="stroke-width:1.40756989"
         id="path333" />
      <path
         d="M 268.02824,1160.1472 H 115.61481 v -22.961 h 107.54714 q -13.45989,-10.4248 -22.69707,-16.231 -11.48049,-7.2578 -20.98158,-10.5568 -10.68874,-3.6949 -21.64139,-3.6949 -6.72994,0 -13.59185,0.9237 3.82683,-9.765 10.02894,-15.7032 8.97326,-8.5774 22.69706,-8.5774 13.45989,0 31.80228,13.196 9.10522,6.598 29.69093,25.0724 15.96712,14.3836 21.64139,15.5712 h 7.91758 z m -66.90356,28.5033 -10.29285,19.1341 -21.37747,-11.0846 9.76502,-19.2661 z"
         style="stroke-width:1.40756989"
         id="path335" />
      <path
         d="m 124.58813,1160.1472 h -18.47436 q -8.973257,0 -14.383604,-7.2578 -4.750548,-6.3341 -7.257782,-18.8702 -2.375274,-12.5362 -3.694871,-30.8786 -0.791758,-14.9114 -1.715476,-30.6146 -0.791758,-15.7032 -2.243314,-23.7528 -1.319597,-8.1815 -3.694871,-13.3279 -2.903113,-6.3341 -8.049541,-11.0846 l 16.231041,-25.6002 q 5.146427,15.8352 7.257782,37.8724 1.319597,13.7238 2.639193,64.9242 2.375275,23.4888 6.861904,30.0868 3.694869,5.5423 8.049539,5.5423 h 18.47436 z"
         style="stroke-width:1.40756989"
         id="path337" />
      <path
         d="M -12.254079,1160.1472 H -164.66751 v -22.961 h 107.547141 q -13.459887,-10.4248 -22.697065,-16.231 -11.480491,-7.2578 -20.981586,-10.5568 -10.68874,-3.6949 -21.64139,-3.6949 -6.72994,0 -13.59185,0.9237 3.82683,-9.765 10.02894,-15.7032 8.97326,-8.5774 22.69706,-8.5774 13.459891,0 31.802286,13.196 9.105218,6.598 29.690927,25.0724 15.967121,14.3836 21.641387,15.5712 h 7.917581 z"
         style="stroke-width:1.40756989"
         id="path339" />
      <path
         d="m -155.69425,1160.1472 h -18.47436 q -8.97326,0 -14.3836,-7.2578 -4.75055,-6.3341 -7.25779,-18.8702 -2.37527,-12.5362 -3.69487,-30.8786 -0.79175,-14.9114 -1.71547,-30.6146 -0.79176,-15.7032 -2.24332,-23.7528 -1.31959,-8.1815 -3.69487,-13.3279 -2.90311,-6.3341 -8.04954,-11.0846 l 16.23104,-25.6002 q 5.14643,15.8352 7.25778,37.8724 1.3196,13.7238 2.6392,64.9242 2.37527,23.4888 6.8619,30.0868 3.69487,5.5423 8.04954,5.5423 h 18.47436 z"
         style="stroke-width:1.40756989"
         id="path341" />
      <path
         d="m -292.53644,1160.1472 h -152.41343 v -22.961 h 107.54714 q -13.45989,-10.4248 -22.69707,-16.231 -11.48049,-7.2578 -20.98159,-10.5568 -10.68873,-3.6949 -21.64138,-3.6949 -6.72995,0 -13.59185,0.9237 3.82683,-9.765 10.02894,-15.7032 8.97325,-8.5774 22.69706,-8.5774 13.45989,0 31.80228,13.196 9.10522,6.598 29.69093,25.0724 15.96712,14.3836 21.64139,15.5712 h 7.91758 z m -63.07673,-122.8545 -10.29285,19.1342 -21.37747,-11.0846 9.76502,-19.2662 z"
         style="stroke-width:1.40756989"
         id="path343" />
      <path
         d="m -435.97659,1160.1472 h -18.47436 q -8.97326,0 -14.3836,-7.2578 -4.75055,-6.3341 -7.25779,-18.8702 -2.37527,-12.5362 -3.69487,-30.8786 -0.79176,-14.9114 -1.71547,-30.6146 -0.79176,-15.7032 -2.24332,-23.7528 -1.31959,-8.1815 -3.69487,-13.3279 -2.90311,-6.3341 -8.04954,-11.0846 l 16.23104,-25.6002 q 5.14643,15.8352 7.25778,37.8724 1.3196,13.7238 2.6392,64.9242 2.37527,23.4888 6.8619,30.0868 3.69487,5.5423 8.04954,5.5423 h 18.47436 z"
         style="stroke-width:1.40756989"
         id="path345" />
      <path
         d="m 2279.3577,1717.8792 h -59.118 q -7.5217,0 -13.5918,-4.3546 -5.9382,-4.3547 -5.9382,-10.2929 0,-5.0145 0.5278,-9.1052 0.5279,-4.0908 1.9794,-8.9733 h 3.0351 q 1.4516,5.4104 5.2784,7.7856 3.167,1.9794 8.7093,1.9794 h 51.0684 q 0,-23.6207 -6.598,-38.0043 -8.1815,-17.9466 -27.3156,-23.8847 l 1.9794,-25.6002 q 22.829,11.2165 32.3301,35.761 7.6537,19.794 7.6537,51.7282 z"
         style="stroke-width:1.40756989"
         id="path347" />
      <path
         d="m 2176.825,1684.2295 q 0,10.5568 -3.8269,20.4538 -1.9794,5.2783 -8.5773,16.7588 l -2.3753,-1.3196 q 0.3959,-3.8268 0.6598,-8.8413 0.3959,-5.0144 0.3959,-6.7299 0,-13.7238 -2.2434,-38.2683 -2.1113,-24.6765 -5.1464,-51.4643 -1.8474,-16.231 -4.0907,-33.1219 2.6392,-5.8062 5.9382,-12.5361 3.4309,-6.73 6.466,-12.6682 2.1113,15.0434 5.2784,41.1715 3.299,26.128 5.1464,47.1096 2.3753,26.128 2.3753,39.4559 z"
         style="stroke-width:1.40756989"
         id="path349" />
      <path
         d="m 2057.1374,1717.8792 h -59.1179 q -7.5217,0 -13.5918,-4.3546 -5.9382,-4.3547 -5.9382,-10.2929 0,-5.0145 0.5278,-9.1052 0.5279,-4.0908 1.9794,-8.9733 h 3.0351 q 1.4515,5.4104 5.2784,7.7856 3.167,1.9794 8.7093,1.9794 h 51.0684 q 0,-23.6207 -6.598,-38.0043 -8.1815,-17.9466 -27.3156,-23.8847 l 1.9794,-25.6002 q 22.829,11.2165 32.3301,35.761 7.6536,19.794 7.6536,51.7282 z m -34.9693,-155.1846 -10.2928,19.1342 -21.3775,-11.0846 9.765,-19.2661 z"
         style="stroke-width:1.40756989"
         id="path351" />
      <path
         d="m 1954.605,1684.2295 q 0,10.5568 -3.8268,20.4538 -1.9794,5.2783 -8.5774,16.7588 l -2.3753,-1.3196 q 0.3959,-3.8268 0.6598,-8.8413 0.3959,-5.0144 0.3959,-6.7299 0,-13.7238 -2.2433,-38.2683 -2.1114,-24.6765 -5.1465,-51.4643 -1.8474,-16.231 -4.0907,-33.1219 2.6392,-5.8062 5.9382,-12.5361 3.4309,-6.73 6.466,-12.6682 2.1114,15.0434 5.2784,41.1715 3.299,26.128 5.1464,47.1096 2.3753,26.128 2.3753,39.4559 z"
         style="stroke-width:1.40756989"
         id="path353" />
      <path
         d="m 1835.1814,1717.8792 q 0,14.5156 -12.4042,30.0868 -10.8207,13.7238 -26.9198,23.6208 -15.3073,9.5011 -25.2043,9.5011 -9.1052,0 -19.662,-2.6392 -8.0495,-1.9794 -19.2661,-6.2021 -9.5011,-3.5629 -18.8702,-7.1258 l 2.2433,-5.2784 q 8.7094,1.7155 18.0785,3.431 9.5011,1.8474 17.1547,1.8474 16.8909,0 35.2333,-10.8207 16.6269,-9.897 28.3713,-24.9404 11.7444,-15.1753 11.7444,-27.3156 0,-10.4249 -6.0701,-21.9053 -4.8825,-9.2372 -13.7238,-19.0022 l 7.5217,-20.7177 q 10.8207,10.0289 15.9671,20.0579 5.8062,11.3485 5.8062,25.3362 z"
         style="stroke-width:1.40756989"
         id="path355" />
      <path
         d="m 1691.7412,1684.2295 q 0,10.5568 -3.8268,20.4538 -1.9794,5.2783 -8.5774,16.7588 l -2.3753,-1.3196 q 0.3959,-3.8268 0.6598,-8.8413 0.3959,-5.0144 0.3959,-6.7299 0,-13.7238 -2.2433,-38.2683 -2.1113,-24.6765 -5.1464,-51.4643 -1.8475,-16.231 -4.0908,-33.1219 2.6392,-5.8062 5.9382,-12.5361 3.431,-6.73 6.466,-12.6682 2.1114,15.0434 5.2784,41.1715 3.299,26.128 5.1465,47.1096 2.3752,26.128 2.3752,39.4559 z"
         style="stroke-width:1.40756989"
         id="path357" />
      <path
         d="m 1572.3176,1717.8792 q 0,14.5156 -12.4042,30.0868 -10.8207,13.7238 -26.9197,23.6208 -15.3074,9.5011 -25.2043,9.5011 -9.1053,0 -19.662,-2.6392 -8.0496,-1.9794 -19.2661,-6.2021 -9.5011,-3.5629 -18.8703,-7.1258 l 2.2433,-5.2784 q 8.7094,1.7155 18.0785,3.431 9.5011,1.8474 17.1548,1.8474 16.8908,0 35.2332,-10.8207 16.6269,-9.897 28.3713,-24.9404 11.7445,-15.1753 11.7445,-27.3156 0,-10.4249 -6.0702,-21.9053 -4.8825,-9.2372 -13.7238,-19.0022 l 7.5217,-20.7177 q 10.8207,10.0289 15.9671,20.0579 5.8062,11.3485 5.8062,25.3362 z m -19.6619,-122.8544 -10.2929,19.1341 -21.3775,-11.0846 9.7651,-19.2661 z"
         style="stroke-width:1.40756989"
         id="path359" />
      <path
         d="m 1428.8776,1684.2295 q 0,10.5568 -3.8269,20.4538 -1.9793,5.2783 -8.5773,16.7588 l -2.3753,-1.3196 q 0.3959,-3.8268 0.6598,-8.8413 0.3959,-5.0144 0.3959,-6.7299 0,-13.7238 -2.2433,-38.2683 -2.1114,-24.6765 -5.1465,-51.4643 -1.8474,-16.231 -4.0907,-33.1219 2.6392,-5.8062 5.9382,-12.5361 3.4309,-6.73 6.466,-12.6682 2.1113,15.0434 5.2784,41.1715 3.299,26.128 5.1464,47.1096 2.3753,26.128 2.3753,39.4559 z"
         style="stroke-width:1.40756989"
         id="path361" />
      <path
         d="m 1309.1901,1717.8792 h -10.1609 q -8.4454,0 -14.5156,-2.2433 -6.0701,-2.3753 -11.0846,-6.598 -6.2021,4.8825 -10.8207,6.466 -6.7299,2.3753 -18.4743,2.3753 h -8.5774 q -6.8619,0 -13.7238,-2.6392 -4.4866,-1.7154 -11.0846,-5.6742 -6.3341,4.7505 -11.6125,6.5979 -5.2783,1.7155 -17.1547,1.7155 h -25.4682 v -22.961 h 25.4682 q 10.6887,0 15.3073,-1.8474 7.6537,-3.0351 7.6537,-12.1403 0,-3.8268 -0.3959,-7.6536 -0.3959,-3.8269 -1.4516,-8.5774 l 5.4104,-7.9176 q 3.6948,12.1403 6.0701,17.6826 4.2227,9.633 9.2372,14.5156 6.0701,5.9381 14.5156,5.9381 h 8.8413 q 9.8969,0 14.6475,-3.035 5.2784,-3.431 5.2784,-10.9527 0,-4.0907 -0.5279,-7.9176 -0.5278,-3.8268 -1.4515,-8.3134 l 5.5423,-7.9176 2.7711,12.4042 q 3.5629,14.6475 8.7094,20.3218 4.4866,5.0145 12.1403,5.0145 3.5629,0 5.6742,-2.1114 2.2433,-2.2433 2.2433,-5.6743 0,-7.3897 -5.4103,-15.5712 -0.9237,-1.3196 -6.466,-8.5774 l 8.5774,-14.3836 q 5.4103,8.1815 7.3897,14.1197 2.9031,8.9733 2.9031,23.8847 z"
         style="stroke-width:1.40756989"
         id="path363" />
      <path
         d="m 1165.4861,1717.8792 h -18.4744 q -8.9732,0 -14.3836,-7.2578 -4.7505,-6.334 -7.2578,-18.8702 -2.3752,-12.5362 -3.6948,-30.8786 -0.7918,-14.9114 -1.7155,-30.6146 -0.7918,-15.7032 -2.2433,-23.7527 -1.3196,-8.1815 -3.6949,-13.328 -2.9031,-6.334 -8.0495,-11.0846 l 16.231,-25.6002 q 5.1464,15.8352 7.2578,37.8725 1.3196,13.7238 2.6392,64.9241 2.3753,23.4888 6.8619,30.0868 3.6949,5.5423 8.0495,5.5423 h 18.4744 z"
         style="stroke-width:1.40756989"
         id="path365" />
      <path
         d="m 1028.3799,1717.8792 h -10.1609 q -8.4454,0 -14.5155,-2.2433 -6.07018,-2.3753 -11.08465,-6.598 -6.2021,4.8825 -10.82069,6.466 -6.72994,2.3753 -18.47435,2.3753 h -8.57738 q -6.86191,0 -13.72381,-2.6392 -4.48663,-1.7154 -11.08461,-5.6742 -6.33407,4.7505 -11.61245,6.5979 -5.27839,1.7155 -17.15476,1.7155 h -25.46822 v -22.961 h 25.46822 q 10.68873,0 15.30732,-1.8474 7.65366,-3.0351 7.65366,-12.1403 0,-3.8268 -0.39588,-7.6536 -0.39588,-3.8269 -1.45155,-8.5774 l 5.41034,-7.9176 q 3.69487,12.1403 6.07015,17.6826 4.22271,9.633 9.23718,14.5156 6.07014,5.9381 14.51556,5.9381 h 8.8413 q 9.89697,0 14.64752,-3.035 5.27839,-3.431 5.27839,-10.9527 0,-4.0907 -0.52784,-7.9176 -0.52784,-3.8268 -1.45156,-8.3134 l 5.54231,-7.9176 2.77115,12.4042 q 3.56292,14.6475 8.70935,20.3218 4.4866,5.0145 12.1403,5.0145 3.5629,0 5.6742,-2.1114 2.2434,-2.2433 2.2434,-5.6743 0,-7.3897 -5.4104,-15.5712 -0.9237,-1.3196 -6.466,-8.5774 l 8.5774,-14.3836 q 5.4103,8.1815 7.3897,14.1197 2.9031,8.9733 2.9031,23.8847 z m -37.74044,-143.3082 -10.1609,19.2661 -21.11354,-11.3485 9.76501,-19.2661 z m 25.99604,23.4888 -10.2928,19.0022 -21.37751,-11.3485 9.89698,-18.8702 z m -30.35071,11.8764 -10.02894,19.1342 -21.37746,-11.0847 9.76501,-19.1341 z"
         style="stroke-width:1.40756989"
         id="path367" />
      <path
         d="m 884.67589,1717.8792 h -18.47435 q -8.97326,0 -14.38361,-7.2578 -4.75054,-6.334 -7.25778,-18.8702 -2.37527,-12.5362 -3.69487,-30.8786 -0.79176,-14.9114 -1.71547,-30.6146 -0.79176,-15.7032 -2.24332,-23.7527 -1.3196,-8.1815 -3.69487,-13.328 -2.90311,-6.334 -8.04954,-11.0846 l 16.23104,-25.6002 q 5.14643,15.8352 7.25778,37.8725 1.3196,13.7238 2.6392,64.9241 2.37527,23.4888 6.8619,30.0868 3.69487,5.5423 8.04954,5.5423 h 18.47435 z"
         style="stroke-width:1.40756989"
         id="path369" />
      <path
         d="M 747.83364,1717.8792 H 589.21811 q -7.12582,0 -13.59185,-2.3753 -4.8825,-1.8474 -11.48049,-5.9381 -5.5423,4.7505 -11.08461,6.5979 -5.54231,1.7155 -17.6826,1.7155 h -25.46822 v -22.961 h 25.46822 q 10.68874,0 15.30732,-1.8474 7.65367,-3.0351 7.65367,-12.1403 0,-3.8268 -0.52784,-7.6536 -0.39588,-3.9588 -1.3196,-8.5774 l 5.41035,-7.9176 q 4.61859,17.9465 12.66813,27.7115 8.57738,10.4248 20.18983,10.4248 11.08461,0 25.99605,-5.0144 16.09908,-5.4104 27.71154,-13.7238 18.87023,-13.4599 23.09294,-16.0991 10.68873,-6.8619 19.39807,-9.765 9.76502,-3.299 21.37747,-3.299 17.94651,0 27.05173,10.4248 8.44542,9.633 8.44542,27.0517 z m -21.50943,-33.1219 q 0,-6.466 -8.04954,-10.0289 -8.04954,-3.6949 -18.73827,-3.6949 -13.19597,0 -31.93424,8.8413 -14.91145,7.5217 -29.69093,15.0434 h 60.83341 q 14.38361,0 20.98159,-2.5072 6.59798,-2.5072 6.59798,-7.6537 z"
         style="stroke-width:1.40756989"
         id="path371" />
      <path
         d="M 518.88366,1717.8792 H 500.4093 q -8.97325,0 -14.3836,-7.2578 -4.75055,-6.334 -7.25778,-18.8702 -2.37528,-12.5362 -3.69487,-30.8786 -0.79176,-14.9114 -1.71548,-30.6146 -0.79176,-15.7032 -2.24332,-23.7527 -1.31959,-8.1815 -3.69487,-13.328 -2.90311,-6.334 -8.04954,-11.0846 l 16.23104,-25.6002 q 5.14643,15.8352 7.25779,37.8725 1.31959,13.7238 2.63919,64.9241 2.37527,23.4888 6.8619,30.0868 3.69487,5.5423 8.04954,5.5423 h 18.47436 z"
         style="stroke-width:1.40756989"
         id="path373" />
      <path
         d="M 382.04147,1717.8792 H 223.42594 q -7.12583,0 -13.59185,-2.3753 -4.88251,-1.8474 -11.48049,-5.9381 -5.54231,4.7505 -11.08462,6.5979 -5.5423,1.7155 -17.68259,1.7155 h -25.46822 v -22.961 h 25.46822 q 10.68873,0 15.30732,-1.8474 7.65366,-3.0351 7.65366,-12.1403 0,-3.8268 -0.52784,-7.6536 -0.39588,-3.9588 -1.31959,-8.5774 l 5.41034,-7.9176 q 4.61859,17.9465 12.66813,27.7115 8.57738,10.4248 20.18983,10.4248 11.08461,0 25.99606,-5.0144 16.09908,-5.4104 27.71153,-13.7238 18.87023,-13.4599 23.09294,-16.0991 10.68874,-6.8619 19.39808,-9.765 9.76501,-3.299 21.37746,-3.299 17.94652,0 27.05174,10.4248 8.44542,9.633 8.44542,27.0517 z m -21.50943,-33.1219 q 0,-6.466 -8.04954,-10.0289 -8.04954,-3.6949 -18.73828,-3.6949 -13.19596,0 -31.93424,8.8413 -14.91144,7.5217 -29.69092,15.0434 h 60.83341 q 14.3836,0 20.98159,-2.5072 6.59798,-2.5072 6.59798,-7.6537 z m -62.28497,-76.5366 -10.29285,19.1342 -21.37747,-11.0846 9.76502,-19.2661 z"
         style="stroke-width:1.40756989"
         id="path375" />
      <path
         d="m 153.09142,1717.8792 h -18.47435 q -8.97326,0 -14.38361,-7.2578 -4.75055,-6.334 -7.25778,-18.8702 -2.37527,-12.5362 -3.69487,-30.8786 -0.79176,-14.9114 -1.71548,-30.6146 -0.79175,-15.7032 -2.24331,-23.7527 -1.3196,-8.1815 -3.69487,-13.328 -2.903115,-6.334 -8.049543,-11.0846 l 16.231043,-25.6002 q 5.14643,15.8352 7.25778,37.8725 1.3196,13.7238 2.63919,64.9241 2.37528,23.4888 6.86191,30.0868 3.69487,5.5423 8.04954,5.5423 h 18.47435 z"
         style="stroke-width:1.40756989"
         id="path377" />
      <path
         d="M 15.985356,1717.8792 H -150.4158 v -22.961 l 20.18983,-0.1319 q 8.97326,0 16.75888,-2.3753 8.97326,-2.7711 20.321793,-9.765 2.375274,-5.8062 3.826831,-12.4042 1.451556,-6.73 1.451556,-12.9321 0,-14.1197 -2.639194,-31.1425 -1.979395,-12.4042 -5.938185,-29.163 -2.111355,-8.7094 -5.542311,-21.2455 l -8.1815,-4.0908 q 0.92372,-7.9176 2.6392,-15.3073 1.84743,-7.3898 5.01447,-14.2517 2.11135,6.2021 9.633052,9.6331 6.202105,2.7711 15.835162,3.6949 -1.319597,13.5918 -1.979396,17.2867 -0.659798,3.6948 -2.507233,9.1052 -0.923718,-0.132 -4.882509,-1.3196 l -1.715475,-0.5278 q 4.618588,15.4392 7.521701,31.8022 3.035073,16.2311 3.035073,27.3157 0,9.3691 -1.847436,20.8496 -0.659798,4.0908 -2.375274,12.6682 23.092944,-13.328 29.558968,-16.363 19.530032,-9.2372 33.517758,-9.2372 17.81455599,0 26.6558543,10.4248 8.0495407,9.5011 8.0495407,27.0517 z m -20.8496293,-33.1219 q 0,-6.7299 -6.9938627,-10.1609 -6.861903,-3.5629 -19.793952,-3.5629 -9.633056,0 -22.169225,4.2227 -10.292855,3.431 -21.905307,9.5011 -8.577379,4.4867 -17.682596,10.1609 h 57.402459 q 31.1424837,0 31.1424837,-10.1609 z"
         style="stroke-width:1.40756989"
         id="path379" />
      <path
         d="m -141.44254,1717.8792 h -18.47436 q -8.97326,0 -14.3836,-7.2578 -4.75055,-6.334 -7.25779,-18.8702 -2.37527,-12.5362 -3.69487,-30.8786 -0.79176,-14.9114 -1.71547,-30.6146 -0.79176,-15.7032 -2.24332,-23.7527 -1.31959,-8.1815 -3.69487,-13.328 -2.90311,-6.334 -8.04954,-11.0846 l 16.23104,-25.6002 q 5.14643,15.8352 7.25778,37.8725 1.3196,13.7238 2.6392,64.9241 2.37527,23.4888 6.8619,30.0868 3.69487,5.5423 8.04954,5.5423 h 18.47436 z"
         style="stroke-width:1.40756989"
         id="path381" />
      <path
         d="m -278.54864,1717.8792 h -166.40115 v -22.961 l 20.18983,-0.1319 q 8.97326,0 16.75888,-2.3753 8.97325,-2.7711 20.32179,-9.765 2.37527,-5.8062 3.82683,-12.4042 1.45155,-6.73 1.45155,-12.9321 0,-14.1197 -2.63919,-31.1425 -1.9794,-12.4042 -5.93819,-29.163 -2.11135,-8.7094 -5.5423,-21.2455 l -8.1815,-4.0908 q 0.92372,-7.9176 2.63919,-15.3073 1.84744,-7.3898 5.01447,-14.2517 2.11135,6.2021 9.63306,9.6331 6.2021,2.7711 15.83516,3.6949 -1.3196,13.5918 -1.9794,17.2867 -0.6598,3.6948 -2.50723,9.1052 -0.92372,-0.132 -4.88251,-1.3196 l -1.71548,-0.5278 q 4.61859,15.4392 7.52171,31.8022 3.03507,16.2311 3.03507,27.3157 0,9.3691 -1.84744,20.8496 -0.6598,4.0908 -2.37527,12.6682 23.09294,-13.328 29.55897,-16.363 19.53003,-9.2372 33.51775,-9.2372 17.81456,0 26.65586,10.4248 8.04954,9.5011 8.04954,27.0517 z m -20.84963,-33.1219 q 0,-6.7299 -6.99386,-10.1609 -6.86191,-3.5629 -19.79395,-3.5629 -9.63306,0 -22.16923,4.2227 -10.29285,3.431 -21.90531,9.5011 -8.57738,4.4867 -17.68259,10.1609 h 57.40246 q 31.14248,0 31.14248,-10.1609 z m -15.0434,-89.7325 -10.29286,19.1341 -21.37747,-11.0846 9.76502,-19.2661 z"
         style="stroke-width:1.40756989"
         id="path383" />
      <path
         d="m -435.97653,1717.8792 h -18.47436 q -8.97326,0 -14.3836,-7.2578 -4.75055,-6.334 -7.25779,-18.8702 -2.37527,-12.5362 -3.69487,-30.8786 -0.79175,-14.9114 -1.71547,-30.6146 -0.79176,-15.7032 -2.24332,-23.7527 -1.31959,-8.1815 -3.69487,-13.328 -2.90311,-6.334 -8.04954,-11.0846 l 16.23104,-25.6002 q 5.14643,15.8352 7.25778,37.8725 1.3196,13.7238 2.6392,64.9241 2.37527,23.4888 6.8619,30.0868 3.69487,5.5423 8.04954,5.5423 h 18.47436 z"
         style="stroke-width:1.40756989"
         id="path385" />
      <path
         d="m 2143.7031,2304.8183 -9.1052,24.0167 q -19.9259,7.2578 -46.1859,12.2722 -26.128,4.8826 -48.1653,4.8826 h -32.858 v -22.961 h 31.6704 q -3.8269,-6.2021 -6.2021,-13.9878 -2.3753,-7.9175 -2.3753,-15.3073 0,-15.5712 12.932,-26.128 13.064,-10.5568 33.5178,-10.5568 16.231,0 26.7878,7.9176 4.4866,3.299 15.1754,16.2311 l -2.5073,2.2433 q -9.1052,-2.5073 -16.363,-3.6949 -7.2578,-1.3196 -15.0434,-1.3196 -18.2104,0 -28.6352,4.0908 -10.2929,3.9587 -10.2929,10.5567 0,6.4661 6.466,14.5156 6.598,7.9176 16.8909,14.1197 21.6414,-3.299 35.4971,-6.3341 13.8558,-3.167 38.7962,-10.5568 z"
         style="stroke-width:1.40756989"
         id="path387" />
      <path
         d="m 2016.3621,2345.9898 h -18.4744 q -8.9733,0 -14.3836,-7.2578 -4.7506,-6.3341 -7.2578,-18.8703 -2.3753,-12.5361 -3.6949,-30.8785 -0.7917,-14.9115 -1.7154,-30.6147 -0.7918,-15.7032 -2.2434,-23.7527 -1.3195,-8.1815 -3.6948,-13.3279 -2.9031,-6.3341 -8.0496,-11.0847 l 16.2311,-25.6001 q 5.1464,15.8351 7.2578,37.8724 1.3196,13.7238 2.6392,64.9242 2.3752,23.4888 6.8619,30.0868 3.6948,5.5423 8.0495,5.5423 h 18.4744 z"
         style="stroke-width:1.40756989"
         id="path389" />
      <path
         d="m 1864.4765,2304.8183 -9.1052,24.0167 q -19.9259,7.2578 -46.1859,12.2722 -26.128,4.8826 -48.1653,4.8826 h -32.8579 v -22.961 h 31.6703 q -3.8268,-6.2021 -6.2021,-13.9878 -2.3753,-7.9175 -2.3753,-15.3073 0,-15.5712 12.9321,-26.128 13.064,-10.5568 33.5177,-10.5568 16.2311,0 26.7878,7.9176 4.4867,3.299 15.1754,16.2311 l -2.5072,2.2433 q -9.1052,-2.5073 -16.363,-3.6949 -7.2578,-1.3196 -15.0434,-1.3196 -18.2105,0 -28.6353,4.0908 -10.2928,3.9587 -10.2928,10.5567 0,6.4661 6.466,14.5156 6.598,7.9176 16.8908,14.1197 21.6414,-3.299 35.4972,-6.3341 13.8557,-3.167 38.7961,-10.5568 z m -55.2911,-81.683 -10.2928,19.1342 -21.3775,-11.0847 9.765,-19.2661 z"
         style="stroke-width:1.40756989"
         id="path391" />
      <path
         d="m 1737.1355,2345.9898 h -18.4744 q -8.9732,0 -14.3836,-7.2578 -4.7505,-6.3341 -7.2578,-18.8703 -2.3752,-12.5361 -3.6948,-30.8785 -0.7918,-14.9115 -1.7155,-30.6147 -0.7918,-15.7032 -2.2433,-23.7527 -1.3196,-8.1815 -3.6949,-13.3279 -2.9031,-6.3341 -8.0495,-11.0847 l 16.231,-25.6001 q 5.1464,15.8351 7.2578,37.8724 1.3196,13.7238 2.6392,64.9242 2.3753,23.4888 6.8619,30.0868 3.6949,5.5423 8.0495,5.5423 h 18.4744 z"
         style="stroke-width:1.40756989"
         id="path393" />
      <path
         d="m 1600.1613,2345.9898 h -81.5511 v -22.961 h 70.3345 q 0,-11.7444 -2.7712,-22.0373 -6.8619,2.2433 -10.5567,3.167 -6.0702,1.5836 -10.6888,1.5836 -9.633,0 -15.7032,-4.8826 -6.9938,-5.5423 -6.9938,-15.9671 0,-18.3424 6.5979,-32.0662 7.3898,-15.3073 19.2662,-15.3073 16.099,0 24.8084,25.2043 7.2578,20.8496 7.2578,48.957 z m -21.5095,-68.6191 q -1.8474,-4.7505 -5.9382,-9.633 -5.5423,-6.598 -10.5567,-6.598 -3.5629,0 -5.9382,3.0351 -2.2433,2.9031 -2.2433,6.9938 0,10.5568 11.6124,10.5568 3.0351,0 6.466,-1.1876 3.431,-1.1877 6.598,-3.1671 z m 4.0908,-77.5923 -10.2929,19.1342 -21.3774,-11.0846 9.765,-19.2661 z"
         style="stroke-width:1.40756989"
         id="path395" />
      <path
         d="m 1527.5835,2345.9898 h -18.4744 q -8.9732,0 -14.3836,-7.2578 -4.7505,-6.3341 -7.2578,-18.8703 -2.3752,-12.5361 -3.6948,-30.8785 -0.7918,-14.9115 -1.7155,-30.6147 -0.7918,-15.7032 -2.2433,-23.7527 -1.3196,-8.1815 -3.6949,-13.3279 -2.9031,-6.3341 -8.0495,-11.0847 l 16.231,-25.6001 q 5.1464,15.8351 7.2578,37.8724 1.3196,13.7238 2.6392,64.9242 2.3753,23.4888 6.8619,30.0868 3.6949,5.5423 8.0495,5.5423 h 18.4744 z"
         style="stroke-width:1.40756989"
         id="path397" />
      <path
         d="m 1390.6093,2345.9898 h -81.5511 v -22.961 h 70.3345 q 0,-11.7444 -2.7712,-22.0373 -6.8619,2.2433 -10.5567,3.167 -6.0702,1.5836 -10.6888,1.5836 -9.633,0 -15.7032,-4.8826 -6.9938,-5.5423 -6.9938,-15.9671 0,-18.3424 6.5979,-32.0662 7.3898,-15.3073 19.2662,-15.3073 16.099,0 24.8084,25.2043 7.2578,20.8496 7.2578,48.957 z m -21.5095,-68.6191 q -1.8474,-4.7505 -5.9382,-9.633 -5.5423,-6.598 -10.5567,-6.598 -3.5629,0 -5.9382,3.0351 -2.2433,2.9031 -2.2433,6.9938 0,10.5568 11.6124,10.5568 3.0351,0 6.466,-1.1876 3.431,-1.1877 6.598,-3.1671 z m 16.8909,-81.4191 -9.7651,19.1342 -21.6413,-11.0847 10.0289,-19.1341 z m -30.0868,12.2723 -9.897,18.8702 -21.7734,-11.2166 10.2929,-19.0022 z"
         style="stroke-width:1.40756989"
         id="path399" />
      <path
         d="m 1318.0315,2345.9898 h -18.4744 q -8.9732,0 -14.3836,-7.2578 -4.7505,-6.3341 -7.2578,-18.8703 -2.3752,-12.5361 -3.6948,-30.8785 -0.7918,-14.9115 -1.7155,-30.6147 -0.7918,-15.7032 -2.2433,-23.7527 -1.3196,-8.1815 -3.6949,-13.3279 -2.9031,-6.3341 -8.0495,-11.0847 l 16.231,-25.6001 q 5.1464,15.8351 7.2578,37.8724 1.3196,13.7238 2.6392,64.9242 2.3753,23.4888 6.8619,30.0868 3.6949,5.5423 8.0495,5.5423 h 18.4744 z"
         style="stroke-width:1.40756989"
         id="path401" />
      <path
         d="m 1180.9254,2345.9898 h -115.7287 v -22.961 h 100.4213 q -9.2371,-13.9878 -21.1135,-24.2806 -11.8764,-10.4248 -32.0662,-22.4332 l -4.3547,4.0908 -15.5712,-11.8764 q -8.1815,-6.8619 -8.1815,-10.6887 0,-22.6971 11.0846,-35.6291 10.2928,-11.8764 35.4971,-21.3775 l 37.2127,-14.5156 v 22.8291 l -27.5796,9.2371 q -16.495,5.4104 -26.6559,9.897 -12.932,5.6743 -12.932,8.7094 0,3.035 8.4454,9.3691 5.2784,3.9588 10.6887,7.9176 20.0579,15.1753 34.9694,31.8023 16.099,17.8145 25.8641,36.9487 z"
         style="stroke-width:1.40756989"
         id="path403" />
      <path
         d="m 1074.17,2345.9898 h -18.4743 q -8.9733,0 -14.3836,-7.2578 -4.7506,-6.3341 -7.2578,-18.8703 -2.3753,-12.5361 -3.6949,-30.8785 -0.7917,-14.9115 -1.7155,-30.6147 -0.7917,-15.7032 -2.2433,-23.7527 -1.3196,-8.1815 -3.6948,-13.3279 -2.9032,-6.3341 -8.0496,-11.0847 l 16.2311,-25.6001 q 5.1464,15.8351 7.2577,37.8724 1.3196,13.7238 2.6392,64.9242 2.3753,23.4888 6.8619,30.0868 3.6949,5.5423 8.0496,5.5423 h 18.4743 z"
         style="stroke-width:1.40756989"
         id="path405" />
      <path
         d="m 926.90292,2206.5084 -6.33407,23.7527 -7.78562,-3.8268 0.26392,12.0083 q 0,17.6826 -4.48663,34.3095 -4.88251,18.2105 -15.43928,36.025 5.01447,9.2372 6.99386,14.5156 3.03507,8.3135 3.03507,16.8908 0,4.8825 -0.26391,8.3135 -0.26392,3.4309 -1.18764,8.0495 -13.98773,3.1671 -29.95485,5.0145 -15.83516,1.7155 -30.87856,1.7155 0.13196,-2.5073 0.13196,-4.2227 0.6598,-10.029 3.16703,-18.6064 22.43314,-12.0083 37.87243,-31.1424 -9.23718,-17.4187 -13.45989,-24.6765 -4.61859,-7.9176 -15.7032,-24.6765 -4.09075,-5.6742 -7.25778,-9.1052 -4.35467,-4.6186 -6.86191,-4.6186 -1.71547,0 -5.67426,1.9794 -2.11136,1.0557 -3.56292,1.0557 -2.90311,0 -9.10521,-5.8062 -5.41035,-5.1464 -11.34853,-12.6681 -4.75055,-6.0702 -6.46603,-10.029 -1.71547,-4.0907 -1.71547,-9.765 0,-8.1815 1.05567,-12.8001 1.58352,-6.9938 5.41035,-6.9938 5.41035,0 15.7032,10.2928 9.10522,9.2372 20.32179,24.2806 9.89698,13.3279 19.53003,28.7672 l 13.45989,21.6414 q 5.93819,9.765 12.14029,22.1692 8.8413,-17.8145 12.14029,-36.025 2.90311,-15.8351 2.90311,-40.3796 l -7.5217,-4.3547 q 0,-8.7093 1.45156,-15.7032 1.58351,-7.1258 4.35467,-12.9321 l 3.03507,0.7918 q 0.52784,5.6743 6.33406,9.1052 3.16704,1.8475 8.04955,4.2227 5.01446,2.3753 7.65366,3.431 z m -34.30952,128.3967 q 0,-2.9031 -1.18764,-5.9381 -1.05567,-3.1671 -4.8825,-10.2929 -3.95879,5.1464 -11.87638,11.8764 -7.78562,6.7299 -15.43928,11.4805 15.57124,0 22.16923,-0.9238 11.21657,-1.5835 11.21657,-6.2021 z"
         style="stroke-width:1.40756989"
         id="path407" />
      <path
         d="m 714.84369,2345.9898 h -13.7238 q -8.8413,0 -19.92591,-3.9588 -12.80009,-4.6186 -22.56511,-12.6682 -7.65366,9.3692 -15.7032,13.064 -7.91758,3.563 -23.2249,3.563 h -20.58571 v -22.961 h 20.18983 q 12.00833,0 21.37746,-6.0702 7.25779,-4.7505 13.19597,-13.3279 8.04954,-11.6125 19.79395,-20.1898 10.55678,-7.6537 19.39808,-9.765 9.10521,13.8557 14.51556,24.9403 7.25778,15.0434 7.25778,24.4126 z m -15.17536,-25.9961 q -1.71548,-7.6537 -5.27839,-15.0434 -3.03507,-6.2021 -8.04954,-12.8001 -6.33406,1.5835 -10.68873,5.9382 -2.90311,2.7711 -6.8619,9.3691 4.75054,5.1465 13.32792,9.2372 8.70934,4.0908 16.363,5.0145 z"
         style="stroke-width:1.40756989"
         id="path409" />
      <path
         d="m 608.08837,2345.9898 h -18.47435 q -8.97326,0 -14.38361,-7.2578 -4.75055,-6.3341 -7.25778,-18.8703 -2.37528,-12.5361 -3.69487,-30.8785 -0.79176,-14.9115 -1.71548,-30.6147 -0.79176,-15.7032 -2.24331,-23.7527 -1.3196,-8.1815 -3.69487,-13.3279 -2.90312,-6.3341 -8.04954,-11.0847 l 16.23104,-25.6001 q 5.14642,15.8351 7.25778,37.8724 1.31959,13.7238 2.63919,64.9242 2.37528,23.4888 6.8619,30.0868 3.69488,5.5423 8.04955,5.5423 h 18.47435 z"
         style="stroke-width:1.40756989"
         id="path411" />
      <path
         d="m 471.11418,2345.9898 h -75.21702 v -22.961 h 65.58396 q 0,-15.5713 -3.69487,-23.7528 -2.50723,-5.6742 -12.40421,-16.363 l 10.29285,-21.5094 q 9.5011,12.0083 11.87638,18.7383 3.56291,10.1609 3.56291,33.6497 z m -10.42482,-121.9308 -10.29285,19.1342 -21.37747,-11.0846 9.76502,-19.2662 z"
         style="stroke-width:1.40756989"
         id="path413" />
      <path
         d="m 404.87047,2345.9898 h -18.47435 q -8.97326,0 -14.38361,-7.2578 -4.75054,-6.3341 -7.25778,-18.8703 -2.37527,-12.5361 -3.69487,-30.8785 -0.79176,-14.9115 -1.71547,-30.6147 -0.79176,-15.7032 -2.24332,-23.7527 -1.3196,-8.1815 -3.69487,-13.3279 -2.90311,-6.3341 -8.04954,-11.0847 l 16.23104,-25.6001 q 5.14643,15.8351 7.25778,37.8724 1.3196,13.7238 2.6392,64.9242 2.37527,23.4888 6.8619,30.0868 3.69487,5.5423 8.04954,5.5423 h 18.47435 z"
         style="stroke-width:1.40756989"
         id="path415" />
      <path
         d="m 249.9498,2323.6886 q 0,7.6536 -4.75055,17.0228 -5.14642,10.1609 -10.29285,10.1609 -5.41035,0 -20.18983,-6.8619 -13.59185,-6.3341 -22.96099,-12.4042 -15.30732,8.7093 -22.30118,11.2165 -8.8413,3.1671 -20.84963,3.1671 H 136.7284 v -22.961 h 11.87637 q 5.41035,0 10.42481,-0.7918 5.01447,-0.9237 13.59185,-3.167 -3.43095,-2.5073 -6.8619,-5.1464 -3.69487,-3.299 -3.69487,-6.4661 0,-2.2433 0.13196,-3.299 0.26392,-1.0556 1.84743,-3.9588 l 13.06401,-22.829 q 2.63919,-4.6186 4.75055,-6.334 2.24331,-1.8475 6.07014,-2.9032 -9.10521,-6.2021 -9.10521,-8.8413 0,-2.6391 5.80622,-13.5918 1.9794,-3.6949 6.07015,-10.9527 8.44542,8.0496 21.2455,23.3569 16.23104,19.2661 25.60018,34.4415 12.40421,20.0579 12.40421,31.1425 z M 203.5,2295.0533 q 0,-5.6742 -2.37528,-8.9732 -2.77115,-3.9588 -8.8413,-3.9588 -6.07014,0 -11.34853,4.0907 -5.27839,3.9588 -5.27839,9.6331 0,5.4103 16.09908,14.2516 5.67427,-3.6948 8.44542,-7.1258 3.299,-3.9588 3.299,-7.9176 z m 31.80228,30.2188 q 0,-4.6186 -7.38974,-14.3836 -4.61859,-6.2021 -11.34854,-13.196 0,6.466 -2.77115,12.1403 -2.63919,5.5423 -7.5217,8.5774 7.91758,4.0907 15.96712,8.0495 6.59798,2.9031 9.36914,2.9031 1.58351,0 2.63919,-1.1876 1.05568,-1.1876 1.05568,-2.9031 z"
         style="stroke-width:1.40756989"
         id="path417" />
      <path
         d="M 145.70165,2345.9898 H 127.2273 q -8.97326,0 -14.38361,-7.2578 -4.75055,-6.3341 -7.25778,-18.8703 -2.37527,-12.5361 -3.69487,-30.8785 -0.79176,-14.9115 -1.71548,-30.6147 -0.791755,-15.7032 -2.243312,-23.7527 -1.319597,-8.1815 -3.694871,-13.3279 -2.903113,-6.3341 -8.04954,-11.0847 l 16.231043,-25.6001 q 5.14642,15.8351 7.25778,37.8724 1.3196,13.7238 2.63919,64.9242 2.37528,23.4888 6.86191,30.0868 3.69487,5.5423 8.04954,5.5423 h 18.47435 z"
         style="stroke-width:1.40756989"
         id="path419" />
      <path
         d="m 8.8595092,2338.0722 q 0,21.7733 -16.0990805,43.2827 -17.9465157,24.0167 -41.4353387,24.0167 -8.709338,0 -17.946516,-1.9794 -6.729943,-1.4515 -17.550637,-5.0145 -8.577379,-3.035 -17.154757,-5.9381 l 2.243314,-4.6186 q 7.389742,1.7154 15.439282,3.5629 8.1815,1.9794 14.647524,1.9794 16.099081,0 30.482685,-8.1815 11.216573,-6.466 22.433145,-18.7383 5.674266,-6.2021 16.09908089,-20.1898 -17.81455589,0 -26.65585489,-5.6743 -10.028935,-6.466 -10.028935,-21.2455 0,-13.5918 6.334064,-25.2043 7.389742,-13.4599 18.738274,-13.4599 11.48049221,0 16.4949599,13.3279 3.9587903,10.4249 3.9587903,29.0312 z m -8.31345961,-14.3836 q -2.90311289,-12.6682 -6.99386289,-17.5507 -3.5629117,-4.2227 -8.7093387,-4.2227 -3.694871,0 -6.466024,2.5073 -2.639194,2.3752 -2.639194,6.0701 0,6.466 5.806226,9.897 5.806226,3.299 19.00219359,3.299 z"
         style="stroke-width:1.40756989"
         id="path421" />
      <path
         d="m -119.27336,2312.34 q 0,10.5568 -3.82683,20.4538 -1.9794,5.2784 -8.57738,16.7589 l -2.37528,-1.3196 q 0.39588,-3.8269 0.6598,-8.8413 0.39588,-5.0145 0.39588,-6.73 0,-13.7238 -2.24331,-38.2683 -2.11136,-24.6764 -5.14643,-51.4643 -1.84744,-16.231 -4.09075,-33.1218 2.63919,-5.8063 5.93819,-12.5362 3.43095,-6.7299 6.46602,-12.6681 2.11135,15.0434 5.27839,41.1714 3.29899,26.128 5.14642,47.1096 2.37528,26.128 2.37528,39.4559 z"
         style="stroke-width:1.40756989"
         id="path423" />
      <path
         d="m -238.82882,2345.9898 h -75.21701 v -22.961 h 65.58396 q 0,-15.5713 -3.69487,-23.7528 -2.50724,-5.6742 -12.40421,-16.363 l 10.29285,-21.5094 q 9.5011,12.0083 11.87637,18.7383 3.56291,10.1609 3.56291,33.6497 z m -1.18763,26.128 -9.76502,19.1341 -21.64139,-11.0846 10.02894,-19.1341 z m -30.08681,12.2722 -9.89698,18.8703 -21.77334,-11.2166 10.29285,-19.0022 z"
         style="stroke-width:1.40756989"
         id="path425" />
      <path
         d="m -305.07258,2345.9898 h -18.47435 q -8.97326,0 -14.38361,-7.2578 -4.75055,-6.3341 -7.25778,-18.8703 -2.37528,-12.5361 -3.69487,-30.8785 -0.79176,-14.9115 -1.71548,-30.6147 -0.79176,-15.7032 -2.24331,-23.7527 -1.3196,-8.1815 -3.69487,-13.3279 -2.90312,-6.3341 -8.04954,-11.0847 l 16.23104,-25.6001 q 5.14642,15.8351 7.25778,37.8724 1.3196,13.7238 2.63919,64.9242 2.37528,23.4888 6.86191,30.0868 3.69487,5.5423 8.04954,5.5423 h 18.47435 z"
         style="stroke-width:1.40756989"
         id="path427" />
      <path
         d="m -453.39526,2312.34 q 0,10.5568 -3.82683,20.4538 -1.97939,5.2784 -8.57738,16.7589 l -2.37527,-1.3196 q 0.39588,-3.8269 0.6598,-8.8413 0.39588,-5.0145 0.39588,-6.73 0,-13.7238 -2.24332,-38.2683 -2.11135,-24.6764 -5.14642,-51.4643 -1.84744,-16.231 -4.09075,-33.1218 2.63919,-5.8063 5.93818,-12.5362 3.43095,-6.7299 6.46602,-12.6681 2.11136,15.0434 5.27839,41.1714 3.29899,26.128 5.14643,47.1096 2.37527,26.128 2.37527,39.4559 z m 3.69487,-143.836 q 0,3.299 -4.09075,5.9382 -2.77115,1.7155 -8.31346,3.6948 l -24.5445,8.4455 q 0,-6.0702 13.19597,-10.6888 -4.09075,-2.1113 -6.2021,-4.0907 -2.77116,-2.5073 -2.77116,-5.2784 0,-4.0908 6.99387,-11.4805 7.78562,-8.1815 13.7238,-8.1815 2.6392,0 4.48663,1.8474 1.9794,1.7155 1.9794,4.6186 0,1.8475 -0.79176,3.8269 -0.79176,1.8474 -2.24331,4.2227 -4.09075,-3.6949 -8.8413,-3.6949 -2.90312,0 -5.80623,1.1876 -2.77115,1.1877 -2.77115,2.7712 0,1.9794 6.07014,5.4103 6.20211,3.431 10.55678,3.431 2.90311,0 4.09075,-0.132 1.31959,-0.2639 5.27838,-1.8474 z"
         style="stroke-width:1.40756989"
         id="path429" />
    </g>
  </g>
</svg>
